FiraCodeDLIG-Light.ufo
<glyph name="ampersand" format="2">
  <advance width="1200"/>
  <unicode hex="0026"/>
  <outline>
    <contour>
      <point x="558" y="1391" type="curve" smooth="yes"/>
      <point x="327" y="1391"/>
      <point x="191" y="1236"/>
      <point x="191" y="1063" type="curve" smooth="yes"/>
      <point x="191" y="949"/>
      <point x="245" y="819"/>
      <point x="433" y="777" type="curve"/>
      <point x="433" y="772" type="line"/>
      <point x="227" y="732"/>
      <point x="117" y="589"/>
      <point x="117" y="387" type="curve" smooth="yes"/>
      <point x="117" y="193"/>
      <point x="240" y="-20"/>
      <point x="550" y="-20" type="curve" smooth="yes"/>
      <point x="780" y="-20"/>
      <point x="899" y="95"/>
      <point x="951" y="169" type="curve"/>
      <point x="951" y="720" type="line"/>
      <point x="1144" y="720" type="line"/>
      <point x="1144" y="831" type="line"/>
      <point x="579" y="831" type="line" smooth="yes"/>
      <point x="432" y="831"/>
      <point x="315" y="948"/>
      <point x="315" y="1075" type="curve" smooth="yes"/>
      <point x="315" y="1200"/>
      <point x="390" y="1291"/>
      <point x="544" y="1291" type="curve" smooth="yes"/>
      <point x="652" y="1291"/>
      <point x="725" y="1251"/>
      <point x="796" y="1169" type="curve"/>
      <point x="876" y="1245" type="line"/>
      <point x="765" y="1366"/>
      <point x="664" y="1391"/>
    </contour>
    <contour>
      <point x="840" y="720" type="line"/>
      <point x="840" y="209" type="line"/>
      <point x="779" y="131"/>
      <point x="675" y="88"/>
      <point x="551" y="88" type="curve" smooth="yes"/>
      <point x="327" y="88"/>
      <point x="239" y="239"/>
      <point x="239" y="388" type="curve" smooth="yes"/>
      <point x="239" y="535"/>
      <point x="331" y="720"/>
      <point x="553" y="720" type="curve" smooth="yes"/>
    </contour>
  </outline>
</glyph>
<glyph name="parenleft" format="2">
  <advance width="1200"/>
  <unicode hex="0028"/>
  <outline>
    <contour>
      <point x="397" y="700" type="curve" smooth="yes"/>
      <point x="397" y="1146"/>
      <point x="545" y="1355"/>
      <point x="839" y="1600" type="curve"/>
      <point x="779" y="1670" type="line"/>
      <point x="452" y="1407"/>
      <point x="263" y="1161"/>
      <point x="263" y="700" type="curve" smooth="yes"/>
      <point x="263" y="239"/>
      <point x="452" y="-7"/>
      <point x="779" y="-270" type="curve"/>
      <point x="839" y="-200" type="line"/>
      <point x="553" y="36"/>
      <point x="397" y="257"/>
    </contour>
  </outline>
</glyph>
<glyph name="plus" format="2">
  <advance width="1200"/>
  <unicode hex="002B"/>
  <outline>
    <contour>
      <point x="660" y="1071" type="line"/>
      <point x="535" y="1071" type="line"/>
      <point x="535" y="676" type="line"/>
      <point x="150" y="676" type="line"/>
      <point x="150" y="565" type="line"/>
      <point x="535" y="565" type="line"/>
      <point x="535" y="174" type="line"/>
      <point x="660" y="174" type="line"/>
      <point x="660" y="565" type="line"/>
      <point x="1050" y="565" type="line"/>
      <point x="1050" y="676" type="line"/>
      <point x="660" y="676" type="line"/>
    </contour>
  </outline>
</glyph>
<glyph name="comma" format="2">
  <advance width="1200"/>
  <unicode hex="002C"/>
  <outline>
    <contour>
      <point x="600" y="304" type="curve" smooth="yes"/>
      <point x="519" y="304"/>
      <point x="457" y="239"/>
      <point x="457" y="161" type="curve" smooth="yes"/>
      <point x="457" y="113"/>
      <point x="479" y="68"/>
      <point x="513" y="41" type="curve"/>
      <point x="419" y="-345" type="line"/>
      <point x="553" y="-345" type="line"/>
      <point x="720" y="39" type="line" smooth="yes"/>
      <point x="741" y="82"/>
      <point x="745" y="122"/>
      <point x="745" y="161" type="curve" smooth="yes"/>
      <point x="745" y="239"/>
      <point x="683" y="304"/>
    </contour>
  </outline>
</glyph>
<glyph name="period" format="2">
  <advance width="1200"/>
  <unicode hex="002E"/>
  <outline>
    <contour>
      <point x="437" y="144" type="curve" smooth="yes"/>
      <point x="437" y="51"/>
      <point x="505" y="-20"/>
      <point x="597" y="-20" type="curve" smooth="yes"/>
      <point x="692" y="-20"/>
      <point x="761" y="51"/>
      <point x="761" y="144" type="curve" smooth="yes"/>
      <point x="761" y="234"/>
      <point x="692" y="304"/>
      <point x="597" y="304" type="curve" smooth="yes"/>
      <point x="505" y="304"/>
      <point x="437" y="234"/>
    </contour>
  </outline>
</glyph>
<glyph name="zero" format="2">
  <advance width="1200"/>
  <unicode hex="0030"/>
  <outline>
    <contour>
      <point x="600" y="1393" type="curve" smooth="yes"/>
      <point x="315" y="1393"/>
      <point x="164" y="1143"/>
      <point x="164" y="687" type="curve" smooth="yes"/>
      <point x="164" y="229"/>
      <point x="315" y="-20"/>
      <point x="600" y="-20" type="curve" smooth="yes"/>
      <point x="886" y="-20"/>
      <point x="1036" y="229"/>
      <point x="1036" y="687" type="curve" smooth="yes"/>
      <point x="1036" y="1143"/>
      <point x="886" y="1393"/>
    </contour>
    <contour>
      <point x="600" y="1285" type="curve" smooth="yes"/>
      <point x="802" y="1285"/>
      <point x="895" y="1101"/>
      <point x="895" y="687" type="curve" smooth="yes"/>
      <point x="895" y="268"/>
      <point x="780" y="89"/>
      <point x="600" y="89" type="curve" smooth="yes"/>
      <point x="402" y="89"/>
      <point x="306" y="274"/>
      <point x="306" y="687" type="curve" smooth="yes"/>
      <point x="306" y="1109"/>
      <point x="423" y="1285"/>
    </contour>
    <contour>
      <point x="817" y="1235" type="line"/>
      <point x="338" y="282" type="line"/>
      <point x="392" y="172" type="line"/>
      <point x="850" y="1096" type="line"/>
    </contour>
  </outline>
</glyph>
<glyph name="two" format="2">
  <advance width="1200"/>
  <unicode hex="0032"/>
  <outline>
    <contour>
      <point x="535" y="1393" type="curve" smooth="yes"/>
      <point x="360" y="1393"/>
      <point x="240" y="1337"/>
      <point x="130" y="1207" type="curve"/>
      <point x="222" y="1134" type="line"/>
      <point x="314" y="1238"/>
      <point x="389" y="1283"/>
      <point x="534" y="1283" type="curve" smooth="yes"/>
      <point x="698" y="1283"/>
      <point x="798" y="1181"/>
      <point x="798" y="1013" type="curve" smooth="yes"/>
      <point x="798" y="771"/>
      <point x="695" y="626"/>
      <point x="158" y="111" type="curve"/>
      <point x="158" y="0" type="line"/>
      <point x="946" y="0" type="line"/>
      <point x="963" y="114" type="line"/>
      <point x="298" y="114" type="line"/>
      <point x="761" y="539"/>
      <point x="931" y="751"/>
      <point x="931" y="1012" type="curve" smooth="yes"/>
      <point x="931" y="1233"/>
      <point x="778" y="1393"/>
    </contour>
  </outline>
</glyph>
<glyph name="seven" format="2">
  <advance width="1200"/>
  <unicode hex="0037"/>
  <outline>
    <contour>
      <point x="441" y="-15" type="line"/>
      <point x="994" y="1271" type="line"/>
      <point x="994" y="1374" type="line"/>
      <point x="212" y="1374" type="line"/>
      <point x="212" y="1264" type="line"/>
      <point x="869" y="1264" type="line"/>
      <point x="327" y="19" type="line"/>
    </contour>
  </outline>
</glyph>
<glyph name="question" format="2">
  <advance width="1200"/>
  <unicode hex="003F"/>
  <outline>
    <contour>
      <point x="601" y="1393" type="curve" smooth="yes"/>
      <point x="454" y="1393"/>
      <point x="316" y="1337"/>
      <point x="199" y="1200" type="curve"/>
      <point x="295" y="1132" type="line"/>
      <point x="381" y="1240"/>
      <point x="492" y="1285"/>
      <point x="588" y="1285" type="curve" smooth="yes"/>
      <point x="735" y="1285"/>
      <point x="847" y="1214"/>
      <point x="847" y="1087" type="curve" smooth="yes"/>
      <point x="847" y="853"/>
      <point x="485" y="843"/>
      <point x="485" y="525" type="curve" smooth="yes"/>
      <point x="485" y="437" type="line"/>
      <point x="619" y="437" type="line"/>
      <point x="619" y="515" type="line" smooth="yes"/>
      <point x="619" y="805"/>
      <point x="976" y="774"/>
      <point x="976" y="1092" type="curve" smooth="yes"/>
      <point x="976" y="1244"/>
      <point x="829" y="1393"/>
    </contour>
    <contour>
      <point x="557" y="220" type="curve" smooth="yes"/>
      <point x="490" y="220"/>
      <point x="439" y="167"/>
      <point x="439" y="102" type="curve" smooth="yes"/>
      <point x="439" y="34"/>
      <point x="490" y="-20"/>
      <point x="557" y="-20" type="curve" smooth="yes"/>
      <point x="628" y="-20"/>
      <point x="679" y="34"/>
      <point x="679" y="102" type="curve" smooth="yes"/>
      <point x="679" y="167"/>
      <point x="628" y="220"/>
    </contour>
  </outline>
</glyph>
<glyph name="A" format="2">
  <advance width="1200"/>
  <unicode hex="0041"/>
  <anchor x="595" y="0" name="bottom"/>
  <anchor x="1100" y="0" name="ogonek"/>
  <anchor x="600" y="1374" name="top"/>
  <anchor x="406" y="1374" name="topleft"/>
  <outline>
    <contour>
      <point x="887" y="367" type="line"/>
      <point x="1008" y="0" type="line"/>
      <point x="1140" y="0" type="line"/>
      <point x="684" y="1374" type="line"/>
      <point x="515" y="1374" type="line"/>
      <point x="60" y="0" type="line"/>
      <point x="180" y="0" type="line"/>
      <point x="301" y="367" type="line"/>
    </contour>
    <contour>
      <point x="344" y="483" type="line"/>
      <point x="596" y="1255" type="line"/>
      <point x="845" y="483" type="line"/>
    </contour>
  </outline>
</glyph>
<glyph name="C" format="2">
  <advance width="1200"/>
  <unicode hex="0043"/>
  <anchor x="698" y="0" name="bottom"/>
  <anchor x="734" y="1374" name="top"/>
  <outline>
    <contour>
      <point x="716" y="1393" type="curve" smooth="yes"/>
      <point x="411" y="1393"/>
      <point x="144" y="1151"/>
      <point x="144" y="687" type="curve" smooth="yes"/>
      <point x="144" y="229"/>
      <point x="403" y="-20"/>
      <point x="726" y="-20" type="curve" smooth="yes"/>
      <point x="917" y="-20"/>
      <point x="1044" y="44"/>
      <point x="1122" y="119" type="curve"/>
      <point x="1050" y="211" type="line"/>
      <point x="978" y="151"/>
      <point x="882" y="98"/>
      <point x="724" y="98" type="curve" smooth="yes"/>
      <point x="476" y="98"/>
      <point x="277" y="254"/>
      <point x="277" y="687" type="curve" smooth="yes"/>
      <point x="277" y="1132"/>
      <point x="489" y="1277"/>
      <point x="730" y="1277" type="curve" smooth="yes"/>
      <point x="835" y="1277"/>
      <point x="933" y="1251"/>
      <point x="1023" y="1175" type="curve"/>
      <point x="1101" y="1264" type="line"/>
      <point x="994" y="1349"/>
      <point x="890" y="1393"/>
    </contour>
  </outline>
</glyph>
<glyph name="D" format="2">
  <advance width="1200"/>
  <unicode hex="0044"/>
  <anchor x="600" y="0" name="bottom"/>
  <anchor x="600" y="688" name="center"/>
  <anchor x="565" y="1374" name="top"/>
  <outline>
    <contour>
      <point x="953" y="694" type="curve" smooth="yes"/>
      <point x="953" y="211"/>
      <point x="707" y="110"/>
      <point x="505" y="110" type="curve" smooth="yes"/>
      <point x="313" y="110" type="line"/>
      <point x="313" y="1261" type="line"/>
      <point x="502" y="1261" type="line" smooth="yes"/>
      <point x="696" y="1261"/>
      <point x="953" y="1205"/>
    </contour>
    <contour>
      <point x="1092" y="694" type="curve" smooth="yes"/>
      <point x="1092" y="1266"/>
      <point x="775" y="1374"/>
      <point x="463" y="1374" type="curve" smooth="yes"/>
      <point x="186" y="1374" type="line"/>
      <point x="186" y="0" type="line"/>
      <point x="484" y="0" type="line" smooth="yes"/>
      <point x="752" y="0"/>
      <point x="1092" y="113"/>
    </contour>
  </outline>
</glyph>
<glyph name="I" format="2">
  <advance width="1200"/>
  <unicode hex="0049"/>
  <anchor x="600" y="0" name="bottom"/>
  <anchor x="685" y="0" name="ogonek"/>
  <anchor x="600" y="1374" name="top"/>
  <anchor x="203" y="1374" name="topleft"/>
  <outline>
    <contour>
      <point x="977" y="1374" type="line"/>
      <point x="223" y="1374" type="line"/>
      <point x="223" y="1265" type="line"/>
      <point x="535" y="1265" type="line"/>
      <point x="535" y="109" type="line"/>
      <point x="223" y="109" type="line"/>
      <point x="223" y="0" type="line"/>
      <point x="977" y="0" type="line"/>
      <point x="977" y="109" type="line"/>
      <point x="665" y="109" type="line"/>
      <point x="665" y="1265" type="line"/>
      <point x="977" y="1265" type="line"/>
    </contour>
  </outline>
</glyph>
<glyph name="U" format="2">
  <advance width="1200"/>
  <unicode hex="0055"/>
  <anchor x="600" y="0" name="bottom"/>
  <anchor x="754" y="0" name="ogonek"/>
  <anchor x="600" y="1374" name="top"/>
  <outline>
    <contour>
      <point x="1037" y="1374" type="line"/>
      <point x="908" y="1374" type="line"/>
      <point x="908" y="397" type="line" smooth="yes"/>
      <point x="908" y="199"/>
      <point x="784" y="102"/>
      <point x="597" y="102" type="curve" smooth="yes"/>
      <point x="413" y="102"/>
      <point x="289" y="199"/>
      <point x="289" y="397" type="curve" smooth="yes"/>
      <point x="289" y="1374" type="line"/>
      <point x="163" y="1374" type="line"/>
      <point x="163" y="441" type="line" smooth="yes"/>
      <point x="163" y="168"/>
      <point x="333" y="-20"/>
      <point x="597" y="-20" type="curve" smooth="yes"/>
      <point x="857" y="-20"/>
      <point x="1037" y="163"/>
      <point x="1037" y="441" type="curve" smooth="yes"/>
    </contour>
  </outline>
</glyph>
<glyph name="e" format="2">
  <advance width="1200"/>
  <unicode hex="0065"/>
  <anchor x="600" y="0" name="bottom"/>
  <anchor x="797" y="0" name="ogonek"/>
  <anchor x="623" y="1050" name="top"/>
  <outline>
    <contour>
      <point x="309" y="475" type="curve"/>
      <point x="1023" y="475" type="line"/>
      <point x="1024" y="496"/>
      <point x="1026" y="525"/>
      <point x="1026" y="561" type="curve" smooth="yes"/>
      <point x="1026" y="874"/>
      <point x="874" y="1069"/>
      <point x="619" y="1069" type="curve" smooth="yes"/>
      <point x="355" y="1069"/>
      <point x="176" y="844"/>
      <point x="176" y="524" type="curve" smooth="yes"/>
      <point x="176" y="197"/>
      <point x="347" y="-20"/>
      <point x="638" y="-20" type="curve" smooth="yes"/>
      <point x="754" y="-20"/>
      <point x="884" y="23"/>
      <point x="981" y="98" type="curve"/>
      <point x="916" y="191" type="line"/>
      <point x="821" y="125"/>
      <point x="743" y="94"/>
      <point x="633" y="94" type="curve" smooth="yes"/>
      <point x="461" y="94"/>
      <point x="314" y="211"/>
    </contour>
    <contour>
      <point x="622" y="953" type="curve" smooth="yes"/>
      <point x="787" y="953"/>
      <point x="903" y="834"/>
      <point x="908" y="587" type="curve"/>
      <point x="311" y="587" type="line"/>
      <point x="325" y="835"/>
      <point x="452" y="953"/>
    </contour>
  </outline>
</glyph>
<glyph name="i" format="2">
  <advance width="1200"/>
  <unicode hex="0069"/>
  <anchor x="600" y="0" name="bottom"/>
  <outline>
    <contour>
      <point x="718" y="1050" type="line"/>
      <point x="272" y="1050" type="line"/>
      <point x="272" y="942" type="line"/>
      <point x="594" y="942" type="line"/>
      <point x="594" y="108" type="line"/>
      <point x="262" y="108" type="line"/>
      <point x="262" y="0" type="line"/>
      <point x="1023" y="0" type="line"/>
      <point x="1023" y="108" type="line"/>
      <point x="718" y="108" type="line"/>
    </contour>
    <contour>
      <point x="601" y="1525" type="curve" smooth="yes"/>
      <point x="541" y="1525"/>
      <point x="500" y="1481"/>
      <point x="500" y="1426" type="curve" smooth="yes"/>
      <point x="500" y="1367"/>
      <point x="541" y="1323"/>
      <point x="601" y="1323" type="curve" smooth="yes"/>
      <point x="665" y="1323"/>
      <point x="705" y="1367"/>
      <point x="705" y="1426" type="curve" smooth="yes"/>
      <point x="705" y="1481"/>
      <point x="665" y="1525"/>
    </contour>
  </outline>
</glyph>
<glyph name="l" format="2">
  <advance width="1200"/>
  <unicode hex="006C"/>
  <anchor x="724" y="0" name="bottom"/>
  <anchor x="1116" y="766" name="center"/>
  <anchor x="535" y="1475" name="top"/>
  <anchor x="675" y="1475" name="topright"/>
  <outline>
    <contour>
      <point x="586" y="1475" type="line"/>
      <point x="136" y="1475" type="line"/>
      <point x="136" y="1367" type="line"/>
      <point x="462" y="1367" type="line"/>
      <point x="462" y="238" type="line" smooth="yes"/>
      <point x="462" y="74"/>
      <point x="593" y="-20"/>
      <point x="759" y="-20" type="curve" smooth="yes"/>
      <point x="857" y="-20"/>
      <point x="940" y="4"/>
      <point x="992" y="30" type="curve"/>
      <point x="956" y="126" type="line"/>
      <point x="895" y="102"/>
      <point x="837" y="88"/>
      <point x="771" y="88" type="curve" smooth="yes"/>
      <point x="664" y="88"/>
      <point x="586" y="129"/>
      <point x="586" y="238" type="curve" smooth="yes"/>
    </contour>
  </outline>
</glyph>
<glyph name="p" format="2">
  <advance width="1200"/>
  <unicode hex="0070"/>
  <anchor x="600" y="0" name="bottom"/>
  <anchor x="600" y="-386" name="bottom "/>
  <anchor x="600" y="1050" name="top"/>
  <outline>
    <contour>
      <point x="655" y="1069" type="curve" smooth="yes"/>
      <point x="520" y="1069"/>
      <point x="410" y="1002"/>
      <point x="335" y="895" type="curve"/>
      <point x="321" y="1050" type="line"/>
      <point x="219" y="1050" type="line"/>
      <point x="219" y="-418" type="line"/>
      <point x="343" y="-401" type="line"/>
      <point x="343" y="105" type="line"/>
      <point x="415" y="21"/>
      <point x="511" y="-20"/>
      <point x="629" y="-20" type="curve" smooth="yes"/>
      <point x="907" y="-20"/>
      <point x="1034" y="209"/>
      <point x="1034" y="525" type="curve" smooth="yes"/>
      <point x="1034" y="851"/>
      <point x="937" y="1069"/>
    </contour>
    <contour>
      <point x="633" y="963" type="curve" smooth="yes"/>
      <point x="817" y="963"/>
      <point x="898" y="806"/>
      <point x="898" y="527" type="curve" smooth="yes"/>
      <point x="898" y="234"/>
      <point x="803" y="93"/>
      <point x="609" y="93" type="curve" smooth="yes"/>
      <point x="500" y="93"/>
      <point x="401" y="149"/>
      <point x="343" y="236" type="curve"/>
      <point x="343" y="780" type="line"/>
      <point x="403" y="868"/>
      <point x="503" y="963"/>
    </contour>
  </outline>
</glyph>
<glyph name="q" format="2">
  <advance width="1200"/>
  <unicode hex="0071"/>
  <anchor x="600" y="0" name="bottom"/>
  <anchor x="600" y="-386" name="bottom "/>
  <anchor x="600" y="1050" name="top"/>
  <outline>
    <contour>
      <point x="560" y="1069" type="curve" smooth="yes"/>
      <point x="302" y="1069"/>
      <point x="166" y="836"/>
      <point x="166" y="522" type="curve" smooth="yes"/>
      <point x="166" y="196"/>
      <point x="267" y="-20"/>
      <point x="554" y="-20" type="curve" smooth="yes"/>
      <point x="665" y="-20"/>
      <point x="775" y="28"/>
      <point x="857" y="146" type="curve"/>
      <point x="857" y="-401" type="line"/>
      <point x="981" y="-418" type="line"/>
      <point x="981" y="1050" type="line"/>
      <point x="877" y="1050" type="line"/>
      <point x="863" y="926" type="line"/>
      <point x="790" y="1019"/>
      <point x="693" y="1069"/>
    </contour>
    <contour>
      <point x="589" y="962" type="curve" smooth="yes"/>
      <point x="699" y="962"/>
      <point x="798" y="907"/>
      <point x="857" y="813" type="curve"/>
      <point x="857" y="267" type="line"/>
      <point x="796" y="177"/>
      <point x="699" y="92"/>
      <point x="569" y="92" type="curve" smooth="yes"/>
      <point x="387" y="92"/>
      <point x="302" y="247"/>
      <point x="302" y="523" type="curve" smooth="yes"/>
      <point x="302" y="813"/>
      <point x="397" y="962"/>
    </contour>
  </outline>
</glyph>
<glyph name="s" format="2">
  <advance width="1200"/>
  <unicode hex="0073"/>
  <anchor x="590" y="0" name="bottom"/>
  <anchor x="612" y="1050" name="top"/>
  <outline>
    <contour>
      <point x="557" y="93" type="curve" smooth="yes"/>
      <point x="433" y="93"/>
      <point x="322" y="138"/>
      <point x="240" y="208" type="curve"/>
      <point x="163" y="117" type="line"/>
      <point x="247" y="44"/>
      <point x="371" y="-20"/>
      <point x="556" y="-20" type="curve" smooth="yes"/>
      <point x="768" y="-20"/>
      <point x="983" y="61"/>
      <point x="983" y="283" type="curve" smooth="yes"/>
      <point x="983" y="477"/>
      <point x="846" y="550"/>
      <point x="640" y="605" type="curve" smooth="yes"/>
      <point x="426" y="662"/>
      <point x="352" y="699"/>
      <point x="352" y="804" type="curve" smooth="yes"/>
      <point x="352" y="893"/>
      <point x="418" y="959"/>
      <point x="603" y="959" type="curve" smooth="yes"/>
      <point x="748" y="959"/>
      <point x="835" y="918"/>
      <point x="912" y="864" type="curve"/>
      <point x="970" y="956" type="line"/>
      <point x="887" y="1018"/>
      <point x="766" y="1069"/>
      <point x="602" y="1069" type="curve" smooth="yes"/>
      <point x="383" y="1069"/>
      <point x="221" y="967"/>
      <point x="221" y="794" type="curve" smooth="yes"/>
      <point x="221" y="612"/>
      <point x="363" y="552"/>
      <point x="589" y="497" type="curve" smooth="yes"/>
      <point x="815" y="442"/>
      <point x="844" y="383"/>
      <point x="844" y="280" type="curve" smooth="yes"/>
      <point x="844" y="168"/>
      <point x="736" y="93"/>
    </contour>
  </outline>
</glyph>
<glyph name="braceleft" format="2">
  <advance width="1200"/>
  <unicode hex="007B"/>
  <outline>
    <contour>
      <point x="894" y="1668" type="line"/>
      <point x="712" y="1668"/>
      <point x="484" y="1611"/>
      <point x="509" y="1374" type="curve" smooth="yes"/>
      <point x="553" y="963" type="line" smooth="yes"/>
      <point x="567" y="831"/>
      <point x="540" y="749"/>
      <point x="242" y="749" type="curve"/>
      <point x="242" y="651" type="line"/>
      <point x="539" y="651"/>
      <point x="567" y="566"/>
      <point x="553" y="435" type="curve" smooth="yes"/>
      <point x="509" y="27" type="line" smooth="yes"/>
      <point x="483" y="-212"/>
      <point x="712" y="-268"/>
      <point x="894" y="-268" type="curve"/>
      <point x="894" y="-162" type="line"/>
      <point x="739" y="-162"/>
      <point x="610" y="-124"/>
      <point x="623" y="7" type="curve" smooth="yes"/>
      <point x="668" y="452" type="line" smooth="yes"/>
      <point x="684" y="614"/>
      <point x="636" y="677"/>
      <point x="518" y="700" type="curve"/>
      <point x="635" y="724"/>
      <point x="683" y="797"/>
      <point x="668" y="948" type="curve" smooth="yes"/>
      <point x="623" y="1393" type="line" smooth="yes"/>
      <point x="610" y="1521"/>
      <point x="740" y="1562"/>
      <point x="894" y="1562" type="curve"/>
    </contour>
  </outline>
</glyph>
<glyph name="bar" format="2">
  <advance width="1200"/>
  <unicode hex="007C"/>
  <outline>
    <contour>
      <point x="653" y="1611" type="line"/>
      <point x="545" y="1611" type="line"/>
      <point x="545" y="-201" type="line"/>
      <point x="653" y="-201" type="line"/>
    </contour>
  </outline>
</glyph>
<glyph name="brokenbar" format="2">
  <advance width="1200"/>
  <unicode hex="00A6"/>
  <outline>
    <contour>
      <point x="653" y="1611" type="line"/>
      <point x="545" y="1611" type="line"/>
      <point x="545" y="906" type="line"/>
      <point x="653" y="906" type="line"/>
    </contour>
    <contour>
      <point x="653" y="504" type="line"/>
      <point x="545" y="504" type="line"/>
      <point x="545" y="-201" type="line"/>
      <point x="653" y="-201" type="line"/>
    </contour>
  </outline>
</glyph>
<glyph name="section" format="2">
  <advance width="1200"/>
  <unicode hex="00A7"/>
  <outline>
    <contour>
      <point x="632" y="1393" type="curve" smooth="yes"/>
      <point x="441" y="1393"/>
      <point x="271" y="1290"/>
      <point x="271" y="1110" type="curve" smooth="yes"/>
      <point x="271" y="1021"/>
      <point x="317" y="951"/>
      <point x="390" y="897" type="curve"/>
      <point x="303" y="844"/>
      <point x="229" y="754"/>
      <point x="229" y="649" type="curve" smooth="yes"/>
      <point x="229" y="494"/>
      <point x="315" y="420"/>
      <point x="540" y="341" type="curve" smooth="yes"/>
      <point x="737" y="275"/>
      <point x="789" y="237"/>
      <point x="789" y="137" type="curve" smooth="yes"/>
      <point x="789" y="40"/>
      <point x="694" y="-18"/>
      <point x="575" y="-18" type="curve" smooth="yes"/>
      <point x="458" y="-18"/>
      <point x="380" y="11"/>
      <point x="303" y="68" type="curve"/>
      <point x="229" y="-21" type="line"/>
      <point x="313" y="-87"/>
      <point x="417" y="-131"/>
      <point x="560" y="-131" type="curve" smooth="yes"/>
      <point x="771" y="-131"/>
      <point x="928" y="-28"/>
      <point x="928" y="150" type="curve" smooth="yes"/>
      <point x="928" y="242"/>
      <point x="879" y="311"/>
      <point x="807" y="364" type="curve"/>
      <point x="895" y="417"/>
      <point x="968" y="506"/>
      <point x="968" y="613" type="curve" smooth="yes"/>
      <point x="968" y="764"/>
      <point x="886" y="841"/>
      <point x="661" y="917" type="curve" smooth="yes"/>
      <point x="459" y="987"/>
      <point x="409" y="1027"/>
      <point x="409" y="1125" type="curve" smooth="yes"/>
      <point x="409" y="1220"/>
      <point x="495" y="1281"/>
      <point x="615" y="1281" type="curve" smooth="yes"/>
      <point x="733" y="1281"/>
      <point x="802" y="1248"/>
      <point x="880" y="1193" type="curve"/>
      <point x="952" y="1287" type="line"/>
      <point x="868" y="1349"/>
      <point x="778" y="1393"/>
    </contour>
    <contour>
      <point x="475" y="847" type="curve"/>
      <point x="765" y="737"/>
      <point x="835" y="717"/>
      <point x="835" y="597" type="curve" smooth="yes"/>
      <point x="835" y="533"/>
      <point x="794" y="465"/>
      <point x="726" y="412" type="curve"/>
      <point x="435" y="519"/>
      <point x="365" y="537"/>
      <point x="365" y="663" type="curve" smooth="yes"/>
      <point x="365" y="724"/>
      <point x="405" y="793"/>
    </contour>
  </outline>
</glyph>
<glyph name="macron" format="2">
  <advance width="1200"/>
  <unicode hex="00AF"/>
  <anchor x="600" y="1050" name="_top"/>
  <outline>
    <contour>
      <point x="857" y="1363" type="line"/>
      <point x="857" y="1464" type="line"/>
      <point x="340" y="1464" type="line"/>
      <point x="340" y="1363" type="line"/>
    </contour>
  </outline>
</glyph>
<glyph name="plusminus" format="2">
  <advance width="1200"/>
  <unicode hex="00B1"/>
  <outline>
    <contour>
      <point x="665" y="1063" type="line"/>
      <point x="535" y="1063" type="line"/>
      <point x="535" y="769" type="line"/>
      <point x="250" y="769" type="line"/>
      <point x="250" y="657" type="line"/>
      <point x="535" y="657" type="line"/>
      <point x="535" y="318" type="line"/>
      <point x="665" y="318" type="line"/>
      <point x="665" y="657" type="line"/>
      <point x="950" y="657" type="line"/>
      <point x="950" y="769" type="line"/>
      <point x="665" y="769" type="line"/>
    </contour>
    <contour>
      <point x="950" y="118" type="line"/>
      <point x="250" y="118" type="line"/>
      <point x="250" y="0" type="line"/>
      <point x="950" y="0" type="line"/>
    </contour>
  </outline>
</glyph>
<glyph name="Eth" format="2">
  <advance width="1200"/>
  <unicode hex="00D0"/>
  <anchor x="617" y="0" name="bottom"/>
  <anchor x="617" y="688" name="center"/>
  <anchor x="582" y="1374" name="top"/>
  <outline>
    <contour>
      <point x="669" y="763" type="line"/>
      <point x="47" y="763" type="line"/>
      <point x="47" y="649" type="line"/>
      <point x="669" y="649" type="line"/>
    </contour>
    <component base="D" xOffset="17"/>
  </outline>
</glyph>
<glyph name="Thorn" format="2">
  <advance width="1200"/>
  <unicode hex="00DE"/>
  <anchor x="600" y="0" name="bottom"/>
  <anchor x="600" y="1374" name="top"/>
  <outline>
    <contour>
      <point x="369" y="1374" type="line"/>
      <point x="243" y="1374" type="line"/>
      <point x="243" y="0" type="line"/>
      <point x="369" y="0" type="line"/>
      <point x="369" y="264" type="line"/>
      <point x="579" y="264" type="line" smooth="yes"/>
      <point x="877" y="264"/>
      <point x="1099" y="391"/>
      <point x="1099" y="711" type="curve" smooth="yes"/>
      <point x="1099" y="1005"/>
      <point x="911" y="1139"/>
      <point x="593" y="1139" type="curve" smooth="yes"/>
      <point x="369" y="1139" type="line"/>
    </contour>
    <contour>
      <point x="618" y="1030" type="line" smooth="yes"/>
      <point x="819" y="1030"/>
      <point x="964" y="938"/>
      <point x="964" y="706" type="curve" smooth="yes"/>
      <point x="964" y="445"/>
      <point x="817" y="374"/>
      <point x="615" y="374" type="curve" smooth="yes"/>
      <point x="369" y="374" type="line"/>
      <point x="369" y="1030" type="line"/>
    </contour>
  </outline>
</glyph>
<glyph name="kgreenlandic" format="2">
  <advance width="1200"/>
  <unicode hex="0138"/>
  <anchor x="600" y="0" name="bottom"/>
  <anchor x="600" y="1050" name="top"/>
  <outline>
    <contour>
      <point x="1049" y="1050" type="line"/>
      <point x="865" y="1050" type="line"/>
      <point x="363" y="569" type="line"/>
      <point x="932" y="0" type="line"/>
      <point x="1112" y="0" type="line"/>
      <point x="534" y="577" type="line"/>
    </contour>
    <contour>
      <point x="343" y="1050" type="line"/>
      <point x="219" y="1050" type="line"/>
      <point x="219" y="0" type="line"/>
      <point x="343" y="0" type="line"/>
    </contour>
  </outline>
</glyph>
<glyph name="napostrophe" format="2">
  <advance width="1200"/>
  <unicode hex="0149"/>
  <anchor x="613" y="0" name="bottom"/>
  <anchor x="610" y="1050" name="top"/>
  <outline>
    <contour>
      <point x="130" y="1496" type="curve" smooth="yes"/>
      <point x="76" y="1496"/>
      <point x="30" y="1458"/>
      <point x="30" y="1401" type="curve" smooth="yes"/>
      <point x="30" y="1372"/>
      <point x="47" y="1343"/>
      <point x="71" y="1321" type="curve"/>
      <point x="6" y="1067" type="line"/>
      <point x="89" y="1067" type="line"/>
      <point x="171" y="1244" type="line" smooth="yes"/>
      <point x="219" y="1346"/>
      <point x="226" y="1375"/>
      <point x="226" y="1401" type="curve" smooth="yes"/>
      <point x="226" y="1455"/>
      <point x="183" y="1496"/>
    </contour>
    <component base="n" xOffset="11"/>
  </outline>
</glyph>
<glyph name="OE" format="2">
  <advance width="1200"/>
  <unicode hex="0152"/>
  <anchor x="600" y="0" name="bottom"/>
  <anchor x="600" y="1374" name="top"/>
  <outline>
    <contour>
      <point x="415" y="1393" type="curve" smooth="yes"/>
      <point x="138" y="1393"/>
      <point x="-9" y="1145"/>
      <point x="-9" y="682" type="curve" smooth="yes"/>
      <point x="-9" y="213"/>
      <point x="135" y="-20"/>
      <point x="415" y="-20" type="curve" smooth="yes"/>
      <point x="458" y="-20"/>
      <point x="498" y="-12"/>
      <point x="539" y="0" type="curve"/>
      <point x="1247" y="0" type="line"/>
      <point x="1247" y="117" type="line"/>
      <point x="676" y="117" type="line"/>
      <point x="767" y="213"/>
      <point x="822" y="378"/>
      <point x="827" y="639" type="curve"/>
      <point x="1153" y="639" type="line"/>
      <point x="1153" y="756" type="line"/>
      <point x="828" y="756" type="line"/>
      <point x="817" y="1008"/>
      <point x="765" y="1167"/>
      <point x="683" y="1257" type="curve"/>
      <point x="1207" y="1257" type="line"/>
      <point x="1224" y="1374" type="line"/>
      <point x="544" y="1374" type="line"/>
      <point x="501" y="1388"/>
      <point x="458" y="1393"/>
    </contour>
    <contour>
      <point x="415" y="1274" type="curve" smooth="yes"/>
      <point x="601" y="1274"/>
      <point x="684" y="1103"/>
      <point x="684" y="685" type="curve" smooth="yes"/>
      <point x="684" y="264"/>
      <point x="598" y="98"/>
      <point x="415" y="98" type="curve" smooth="yes"/>
      <point x="244" y="98"/>
      <point x="149" y="261"/>
      <point x="149" y="682" type="curve" smooth="yes"/>
      <point x="149" y="1104"/>
      <point x="239" y="1274"/>
    </contour>
  </outline>
</glyph>
<glyph name="Tbar" format="2">
  <advance width="1200"/>
  <unicode hex="0166"/>
  <anchor x="598" y="0" name="bottom"/>
  <anchor x="680" y="0" name="bottomright"/>
  <anchor x="600" y="688" name="center"/>
  <anchor x="598" y="1374" name="top"/>
  <outline>
    <contour>
      <point x="263" y="721" type="line"/>
      <point x="932" y="721" type="line"/>
      <point x="932" y="841" type="line"/>
      <point x="263" y="841" type="line"/>
    </contour>
    <component base="T"/>
  </outline>
</glyph>
<glyph name="tbar" format="2">
  <advance width="1200"/>
  <unicode hex="0167"/>
  <anchor x="749" y="0" name="bottom"/>
  <anchor x="600" y="526" name="center"/>
  <anchor x="482" y="1304" name="top"/>
  <anchor x="641" y="1471" name="topright"/>
  <outline>
    <contour>
      <point x="901" y="699" type="line"/>
      <point x="420" y="699" type="line"/>
      <point x="193" y="699" type="line"/>
      <point x="193" y="591" type="line"/>
      <point x="544" y="591" type="line"/>
      <point x="901" y="591" type="line"/>
    </contour>
    <component base="t"/>
  </outline>
</glyph>
<glyph name="apostrophemod" format="2">
  <advance width="1200"/>
  <unicode hex="02BC"/>
  <outline>
    <contour>
      <point x="588" y="1493" type="curve" smooth="yes"/>
      <point x="536" y="1493"/>
      <point x="491" y="1455"/>
      <point x="491" y="1400" type="curve" smooth="yes"/>
      <point x="491" y="1371"/>
      <point x="508" y="1344"/>
      <point x="531" y="1322" type="curve"/>
      <point x="464" y="1057" type="line"/>
      <point x="546" y="1057" type="line"/>
      <point x="632" y="1245" type="line" smooth="yes"/>
      <point x="679" y="1346"/>
      <point x="682" y="1369"/>
      <point x="682" y="1397" type="curve" smooth="yes"/>
      <point x="682" y="1453"/>
      <point x="640" y="1493"/>
    </contour>
  </outline>
</glyph>
<glyph name="circumflex" format="2">
  <advance width="1200"/>
  <unicode hex="02C6"/>
  <anchor x="600" y="1050" name="_top"/>
  <outline>
    <contour>
      <point x="360" y="1268" type="line"/>
      <point x="603" y="1447" type="line"/>
      <point x="846" y="1268" type="line"/>
      <point x="911" y="1338" type="line"/>
      <point x="646" y="1563" type="line"/>
      <point x="557" y="1563" type="line"/>
      <point x="290" y="1338" type="line"/>
    </contour>
  </outline>
</glyph>
<glyph name="firsttonechinese" format="2">
  <advance width="1200"/>
  <unicode hex="02C9"/>
  <outline>
    <contour>
      <point x="857" y="1374" type="line"/>
      <point x="857" y="1475" type="line"/>
      <point x="341" y="1475" type="line"/>
      <point x="341" y="1374" type="line"/>
    </contour>
  </outline>
</glyph>
<glyph name="dotaccent" format="2">
  <advance width="1200"/>
  <unicode hex="02D9"/>
  <anchor x="597" y="1428" name="_center"/>
  <anchor x="600" y="1050" name="_top"/>
  <outline>
    <contour>
      <point x="597" y="1525" type="curve" smooth="yes"/>
      <point x="537" y="1525"/>
      <point x="496" y="1481"/>
      <point x="496" y="1426" type="curve" smooth="yes"/>
      <point x="496" y="1367"/>
      <point x="537" y="1323"/>
      <point x="597" y="1323" type="curve" smooth="yes"/>
      <point x="661" y="1323"/>
      <point x="702" y="1367"/>
      <point x="702" y="1426" type="curve" smooth="yes"/>
      <point x="702" y="1481"/>
      <point x="661" y="1525"/>
    </contour>
  </outline>
</glyph>
<glyph name="tilde" format="2">
  <advance width="1200"/>
  <unicode hex="02DC"/>
  <anchor x="600" y="1050" name="_top"/>
  <outline>
    <contour>
      <point x="718" y="1331" type="curve" smooth="yes"/>
      <point x="795" y="1331"/>
      <point x="864" y="1370"/>
      <point x="916" y="1475" type="curve"/>
      <point x="826" y="1521" type="line"/>
      <point x="789" y="1461"/>
      <point x="757" y="1433"/>
      <point x="719" y="1433" type="curve" smooth="yes"/>
      <point x="642" y="1433"/>
      <point x="594" y="1531"/>
      <point x="487" y="1531" type="curve" smooth="yes"/>
      <point x="396" y="1531"/>
      <point x="331" y="1467"/>
      <point x="287" y="1383" type="curve"/>
      <point x="378" y="1336" type="line"/>
      <point x="410" y="1397"/>
      <point x="440" y="1430"/>
      <point x="484" y="1430" type="curve" smooth="yes"/>
      <point x="559" y="1430"/>
      <point x="616" y="1331"/>
    </contour>
  </outline>
</glyph>
<glyph name="acutecomb" format="2">
  <unicode hex="0301"/>
  <anchor x="600" y="1050" name="_top"/>
  <outline>
    <contour>
      <point x="772" y="1571" type="line"/>
      <point x="392" y="1360" type="line"/>
      <point x="434" y="1290" type="line"/>
      <point x="836" y="1455" type="line"/>
    </contour>
  </outline>
</glyph>
<glyph name="commaaccent" format="2">
  <unicode hex="0326"/>
  <anchor x="599" y="0" name="_bottom"/>
  <outline>
    <contour>
      <point x="608" y="-144" type="curve" smooth="yes"/>
      <point x="556" y="-144"/>
      <point x="514" y="-183"/>
      <point x="514" y="-237" type="curve" smooth="yes"/>
      <point x="514" y="-266"/>
      <point x="528" y="-297"/>
      <point x="551" y="-315" type="curve"/>
      <point x="491" y="-551" type="line"/>
      <point x="577" y="-551" type="line"/>
      <point x="677" y="-331" type="line" smooth="yes"/>
      <point x="696" y="-288"/>
      <point x="702" y="-268"/>
      <point x="702" y="-237" type="curve" smooth="yes"/>
      <point x="702" y="-184"/>
      <point x="660" y="-144"/>
    </contour>
  </outline>
</glyph>
<glyph name="Heta" format="2">
  <advance width="1200"/>
  <unicode hex="0370"/>
  <anchor x="600" y="0" name="bottom"/>
  <anchor x="600" y="1374" name="top"/>
  <outline>
    <contour>
      <point x="961" y="672" type="line"/>
      <point x="961" y="779" type="line"/>
      <point x="366" y="779" type="line"/>
      <point x="366" y="1374" type="line"/>
      <point x="238" y="1374" type="line"/>
      <point x="238" y="0" type="line"/>
      <point x="366" y="0" type="line"/>
      <point x="366" y="672" type="line"/>
    </contour>
  </outline>
</glyph>
<glyph name="Archaicsampi" format="2">
  <advance width="1200"/>
  <unicode hex="0372"/>
  <anchor x="600" y="0" name="bottom"/>
  <anchor x="600" y="1374" name="top"/>
  <outline>
    <contour>
      <point x="538" y="0" type="line"/>
      <point x="665" y="0" type="line"/>
      <point x="665" y="1251" type="line"/>
      <point x="1118" y="1251" type="line"/>
      <point x="1118" y="1374" type="line"/>
      <point x="84" y="1374" type="line"/>
      <point x="84" y="1251" type="line"/>
      <point x="538" y="1251" type="line"/>
    </contour>
    <contour>
      <point x="84" y="859" type="line"/>
      <point x="209" y="859" type="line"/>
      <point x="209" y="1280" type="line"/>
      <point x="84" y="1280" type="line"/>
    </contour>
    <contour>
      <point x="993" y="861" type="line"/>
      <point x="1118" y="861" type="line"/>
      <point x="1118" y="1288" type="line"/>
      <point x="993" y="1288" type="line"/>
    </contour>
  </outline>
</glyph>
<glyph name="Psi" format="2">
  <advance width="1200"/>
  <unicode hex="03A8"/>
  <anchor x="600" y="0" name="bottom"/>
  <anchor x="600" y="1374" name="top"/>
  <outline>
    <contour>
      <point x="529" y="0" type="line"/>
      <point x="674" y="0" type="line"/>
      <point x="674" y="391" type="line"/>
      <point x="1013" y="415"/>
      <point x="1172" y="606"/>
      <point x="1172" y="863" type="curve" smooth="yes"/>
      <point x="1172" y="1374" type="line"/>
      <point x="1025" y="1374" type="line"/>
      <point x="1025" y="878" type="line" smooth="yes"/>
      <point x="1025" y="667"/>
      <point x="929" y="538"/>
      <point x="677" y="519" type="curve"/>
      <point x="677" y="1374" type="line"/>
      <point x="525" y="1374" type="line"/>
      <point x="525" y="517" type="line"/>
      <point x="267" y="537"/>
      <point x="175" y="668"/>
      <point x="175" y="878" type="curve" smooth="yes"/>
      <point x="175" y="1374" type="line"/>
      <point x="28" y="1374" type="line"/>
      <point x="28" y="863" type="line" smooth="yes"/>
      <point x="28" y="610"/>
      <point x="182" y="411"/>
      <point x="529" y="389" type="curve"/>
    </contour>
  </outline>
</glyph>
<glyph name="kappa" format="2">
  <advance width="1200"/>
  <unicode hex="03BA"/>
  <anchor x="600" y="0" name="bottom"/>
  <anchor x="600" y="1050" name="top"/>
  <outline>
    <contour>
      <point x="929" y="1071" type="line"/>
      <point x="379" y="568" type="line"/>
      <point x="813" y="119" type="line" smooth="yes"/>
      <point x="887" y="54"/>
      <point x="958" y="-2"/>
      <point x="1064" y="-19" type="curve"/>
      <point x="1108" y="86" type="line"/>
      <point x="1018" y="107"/>
      <point x="961" y="147"/>
      <point x="865" y="244" type="curve" smooth="yes"/>
      <point x="549" y="568" type="line"/>
      <point x="1036" y="978" type="line"/>
    </contour>
    <contour>
      <point x="318" y="1050" type="curve"/>
      <point x="194" y="1050" type="line"/>
      <point x="225" y="932"/>
      <point x="247" y="820"/>
      <point x="247" y="676" type="curve" smooth="yes"/>
      <point x="247" y="0" type="line"/>
      <point x="371" y="0" type="line"/>
      <point x="371" y="642" type="line" smooth="yes"/>
      <point x="371" y="751"/>
      <point x="369" y="910"/>
    </contour>
  </outline>
</glyph>
<glyph name="nu" format="2">
  <advance width="1200"/>
  <unicode hex="03BD"/>
  <anchor x="600" y="0" name="bottom"/>
  <anchor x="600" y="1050" name="top"/>
  <outline>
    <contour>
      <point x="492" y="0" type="curve"/>
      <point x="653" y="0" type="line"/>
      <point x="1077" y="1040" type="line"/>
      <point x="948" y="1069" type="line"/>
      <point x="586" y="122" type="line"/>
      <point x="495" y="487"/>
      <point x="372" y="877"/>
      <point x="207" y="1067" type="curve"/>
      <point x="73" y="1016" type="line"/>
      <point x="243" y="867"/>
      <point x="403" y="363"/>
    </contour>
  </outline>
</glyph>
<glyph name="sigma" format="2">
  <advance width="1200"/>
  <unicode hex="03C3"/>
  <anchor x="600" y="0" name="bottom"/>
  <anchor x="600" y="1050" name="top"/>
  <outline>
    <contour>
      <point x="651" y="1060" type="curve"/>
      <point x="347" y="1060"/>
      <point x="166" y="848"/>
      <point x="166" y="526" type="curve" smooth="yes"/>
      <point x="166" y="201"/>
      <point x="319" y="-20"/>
      <point x="600" y="-20" type="curve" smooth="yes"/>
      <point x="877" y="-20"/>
      <point x="1029" y="194"/>
      <point x="1029" y="537" type="curve" smooth="yes"/>
      <point x="1029" y="770"/>
      <point x="935" y="909"/>
      <point x="826" y="957" type="curve"/>
      <point x="725" y="963" type="line"/>
      <point x="822" y="891"/>
      <point x="893" y="756"/>
      <point x="893" y="529" type="curve" smooth="yes"/>
      <point x="893" y="233"/>
      <point x="792" y="90"/>
      <point x="600" y="90" type="curve" smooth="yes"/>
      <point x="406" y="90"/>
      <point x="302" y="233"/>
      <point x="302" y="526" type="curve" smooth="yes"/>
      <point x="302" y="896"/>
      <point x="500" y="960"/>
      <point x="758" y="954" type="curve"/>
      <point x="810" y="951" type="line"/>
      <point x="1107" y="931" type="line"/>
      <point x="1107" y="1052" type="line"/>
      <point x="983" y="1056"/>
      <point x="800" y="1060"/>
    </contour>
  </outline>
</glyph>
<glyph name="upsilon" format="2">
  <advance width="1200"/>
  <unicode hex="03C5"/>
  <anchor x="600" y="0" name="bottom"/>
  <anchor x="600" y="1050" name="top"/>
  <outline>
    <contour>
      <point x="985" y="1050" type="curve"/>
      <point x="857" y="1050" type="line"/>
      <point x="897" y="838"/>
      <point x="908" y="663"/>
      <point x="908" y="524" type="curve" smooth="yes"/>
      <point x="908" y="176"/>
      <point x="728" y="90"/>
      <point x="580" y="90" type="curve" smooth="yes"/>
      <point x="438" y="90"/>
      <point x="353" y="169"/>
      <point x="353" y="325" type="curve" smooth="yes"/>
      <point x="353" y="1050" type="line"/>
      <point x="229" y="1050" type="line"/>
      <point x="229" y="311" type="line" smooth="yes"/>
      <point x="229" y="89"/>
      <point x="377" y="-20"/>
      <point x="578" y="-20" type="curve" smooth="yes"/>
      <point x="803" y="-20"/>
      <point x="1035" y="137"/>
      <point x="1035" y="509" type="curve" smooth="yes"/>
      <point x="1035" y="712"/>
      <point x="1017" y="869"/>
    </contour>
  </outline>
</glyph>
<glyph name="KaiSymbol" format="2">
  <advance width="1200"/>
  <unicode hex="03CF"/>
  <anchor x="600" y="-386" name="bottom"/>
  <outline>
    <contour>
      <point x="959" y="113" type="line"/>
      <point x="959" y="0" type="line"/>
      <point x="1144" y="0" type="line"/>
      <point x="1144" y="113" type="line"/>
    </contour>
    <contour>
      <point x="358" y="0" type="line"/>
      <point x="358" y="1374" type="line"/>
      <point x="231" y="1374" type="line"/>
      <point x="231" y="0" type="line"/>
    </contour>
    <contour>
      <point x="368" y="734" type="line"/>
      <point x="946" y="0" type="line"/>
      <point x="1118" y="0" type="line"/>
      <point x="535" y="741" type="line"/>
      <point x="1080" y="1374" type="line"/>
      <point x="912" y="1374" type="line"/>
    </contour>
    <component base="hookHELPER.case" xOffset="642"/>
  </outline>
</glyph>
<glyph name="betaSymbol" format="2">
  <advance width="1200"/>
  <unicode hex="03D0"/>
  <outline>
    <contour>
      <point x="685" y="1492" type="curve" smooth="yes"/>
      <point x="442" y="1492"/>
      <point x="173" y="1233"/>
      <point x="173" y="691" type="curve" smooth="yes"/>
      <point x="173" y="242"/>
      <point x="283" y="-20"/>
      <point x="602" y="-20" type="curve" smooth="yes"/>
      <point x="883" y="-20"/>
      <point x="1026" y="223"/>
      <point x="1026" y="442" type="curve" smooth="yes"/>
      <point x="1026" y="771"/>
      <point x="884" y="879"/>
      <point x="699" y="879" type="curve" smooth="yes"/>
      <point x="679" y="879"/>
      <point x="659" y="876"/>
      <point x="625" y="869" type="curve"/>
      <point x="779" y="915"/>
      <point x="956" y="1058"/>
      <point x="956" y="1244" type="curve" smooth="yes"/>
      <point x="956" y="1359"/>
      <point x="891" y="1492"/>
    </contour>
    <contour>
      <point x="678" y="1389" type="curve" smooth="yes"/>
      <point x="761" y="1389"/>
      <point x="811" y="1345"/>
      <point x="811" y="1255" type="curve" smooth="yes"/>
      <point x="811" y="1064"/>
      <point x="674" y="958"/>
      <point x="387" y="836" type="curve" smooth="yes"/>
      <point x="279" y="790" type="line"/>
      <point x="274" y="660" type="line"/>
      <point x="382" y="715" type="line" smooth="yes"/>
      <point x="482" y="766"/>
      <point x="552" y="789"/>
      <point x="642" y="789" type="curve" smooth="yes"/>
      <point x="851" y="789"/>
      <point x="889" y="643"/>
      <point x="889" y="435" type="curve" smooth="yes"/>
      <point x="889" y="241"/>
      <point x="786" y="91"/>
      <point x="598" y="91" type="curve" smooth="yes"/>
      <point x="402" y="91"/>
      <point x="314" y="235"/>
      <point x="314" y="691" type="curve" smooth="yes"/>
      <point x="314" y="1167"/>
      <point x="496" y="1389"/>
    </contour>
  </outline>
</glyph>
<glyph name="piSymbol" format="2">
  <advance width="1200"/>
  <unicode hex="03D6"/>
  <anchor x="600" y="0" name="bottom"/>
  <anchor x="600" y="1050" name="top"/>
  <outline>
    <contour>
      <point x="53" y="922" type="line"/>
      <point x="121" y="940"/>
      <point x="147" y="944"/>
      <point x="230" y="944" type="curve" smooth="yes"/>
      <point x="1190" y="946" type="line"/>
      <point x="1190" y="1050" type="line"/>
      <point x="352" y="1050" type="line" smooth="yes"/>
      <point x="157" y="1050"/>
      <point x="96" y="1047"/>
      <point x="31" y="1028" type="curve"/>
    </contour>
    <contour>
      <point x="1032" y="1018" type="curve"/>
      <point x="928" y="1018" type="line"/>
      <point x="998" y="799"/>
      <point x="1010" y="653"/>
      <point x="1010" y="470" type="curve" smooth="yes"/>
      <point x="1010" y="257"/>
      <point x="972" y="90"/>
      <point x="845" y="90" type="curve" smooth="yes"/>
      <point x="724" y="90"/>
      <point x="690" y="254"/>
      <point x="690" y="455" type="curve" smooth="yes"/>
      <point x="690" y="701" type="line"/>
      <point x="544" y="681" type="line"/>
      <point x="544" y="459" type="line" smooth="yes"/>
      <point x="544" y="285"/>
      <point x="509" y="90"/>
      <point x="386" y="90" type="curve" smooth="yes"/>
      <point x="262" y="90"/>
      <point x="227" y="257"/>
      <point x="227" y="470" type="curve" smooth="yes"/>
      <point x="227" y="651"/>
      <point x="231" y="798"/>
      <point x="300" y="1014" type="curve"/>
      <point x="200" y="1014" type="line"/>
      <point x="137" y="894"/>
      <point x="90" y="717"/>
      <point x="90" y="484" type="curve" smooth="yes"/>
      <point x="90" y="162"/>
      <point x="177" y="-20"/>
      <point x="373" y="-20" type="curve" smooth="yes"/>
      <point x="500" y="-20"/>
      <point x="588" y="72"/>
      <point x="615" y="220" type="curve"/>
      <point x="628" y="65"/>
      <point x="717" y="-20"/>
      <point x="852" y="-20" type="curve" smooth="yes"/>
      <point x="1049" y="-20"/>
      <point x="1147" y="175"/>
      <point x="1147" y="484" type="curve" smooth="yes"/>
      <point x="1147" y="719"/>
      <point x="1094" y="897"/>
    </contour>
  </outline>
</glyph>
<glyph name="stigma" format="2">
  <advance width="1200"/>
  <unicode hex="03DB"/>
  <anchor x="600" y="-386" name="bottom"/>
  <anchor x="600" y="1050" name="top"/>
  <outline>
    <contour>
      <point x="834" y="1149" type="line"/>
      <point x="834" y="992"/>
      <point x="752" y="972"/>
      <point x="534" y="924" type="curve" smooth="yes"/>
      <point x="301" y="876"/>
      <point x="146" y="751"/>
      <point x="146" y="518" type="curve" smooth="yes"/>
      <point x="146" y="204"/>
      <point x="366" y="112"/>
      <point x="579" y="53" type="curve" smooth="yes"/>
      <point x="738" y="9"/>
      <point x="843" y="-4"/>
      <point x="843" y="-122" type="curve" smooth="yes"/>
      <point x="843" y="-219"/>
      <point x="765" y="-273"/>
      <point x="631" y="-328" type="curve"/>
      <point x="688" y="-423" type="line"/>
      <point x="891" y="-333"/>
      <point x="983" y="-244"/>
      <point x="983" y="-107" type="curve" smooth="yes"/>
      <point x="983" y="57"/>
      <point x="843" y="108"/>
      <point x="655" y="166" type="curve" smooth="yes"/>
      <point x="372" y="253"/>
      <point x="285" y="304"/>
      <point x="285" y="515" type="curve" smooth="yes"/>
      <point x="285" y="730"/>
      <point x="412" y="775"/>
      <point x="618" y="819" type="curve" smooth="yes"/>
      <point x="813" y="859"/>
      <point x="974" y="922"/>
      <point x="974" y="1138" type="curve"/>
    </contour>
  </outline>
</glyph>
<glyph name="Digamma" format="2">
  <advance width="1200"/>
  <unicode hex="03DC"/>
  <anchor x="342" y="0" name="bottom"/>
  <anchor x="407" y="0" name="bottomright"/>
  <anchor x="685" y="1374" name="top"/>
  <outline>
    <contour>
      <point x="875" y="615" type="curve"/>
      <point x="914" y="722" type="line"/>
      <point x="852" y="748"/>
      <point x="808" y="760"/>
      <point x="714" y="760" type="curve" smooth="yes"/>
      <point x="386" y="760" type="line"/>
      <point x="386" y="641" type="line"/>
      <point x="700" y="641" type="line" smooth="yes"/>
      <point x="787" y="641"/>
      <point x="832" y="629"/>
    </contour>
    <component base="Gamma" xOffset="-22"/>
  </outline>
</glyph>
<glyph name="digamma" format="2">
  <advance width="1200"/>
  <unicode hex="03DD"/>
  <anchor x="600" y="-386" name="bottom"/>
  <anchor x="600" y="1050" name="top"/>
  <outline>
    <contour>
      <point x="581" y="1050" type="line" smooth="yes"/>
      <point x="379" y="1050"/>
      <point x="272" y="967"/>
      <point x="272" y="742" type="curve" smooth="yes"/>
      <point x="272" y="-420" type="line"/>
      <point x="396" y="-403" type="line"/>
      <point x="396" y="763" type="line" smooth="yes"/>
      <point x="396" y="892"/>
      <point x="445" y="941"/>
      <point x="577" y="941" type="curve" smooth="yes"/>
      <point x="1025" y="941" type="line"/>
      <point x="1045" y="1050" type="line"/>
    </contour>
    <contour>
      <point x="926" y="317" type="curve"/>
      <point x="960" y="412" type="line"/>
      <point x="904" y="439"/>
      <point x="860" y="451"/>
      <point x="766" y="451" type="curve" smooth="yes"/>
      <point x="300" y="451" type="line"/>
      <point x="300" y="343" type="line"/>
      <point x="751" y="343" type="line" smooth="yes"/>
      <point x="841" y="343"/>
      <point x="883" y="331"/>
    </contour>
  </outline>
</glyph>
<glyph name="koppa" format="2">
  <advance width="1200"/>
  <unicode hex="03DF"/>
  <anchor x="600" y="0" name="bottom"/>
  <anchor x="600" y="1475" name="top"/>
  <outline>
    <contour>
      <point x="644" y="-20" type="line"/>
      <point x="658" y="82"/>
      <point x="689" y="175"/>
      <point x="797" y="390" type="curve" smooth="yes"/>
      <point x="1009" y="810" type="line"/>
      <point x="906" y="847" type="line"/>
      <point x="659" y="383" type="line" smooth="yes"/>
      <point x="576" y="226"/>
      <point x="554" y="133"/>
      <point x="536" y="-3" type="curve"/>
    </contour>
    <contour>
      <point x="228" y="586" type="line"/>
      <point x="1008" y="810" type="line"/>
      <point x="966" y="925" type="line"/>
      <point x="191" y="704" type="line"/>
    </contour>
    <contour>
      <point x="277" y="633" type="line"/>
      <point x="524" y="1097" type="line" smooth="yes"/>
      <point x="608" y="1254"/>
      <point x="629" y="1347"/>
      <point x="647" y="1483" type="curve"/>
      <point x="538" y="1500" type="line"/>
      <point x="525" y="1398"/>
      <point x="495" y="1305"/>
      <point x="386" y="1090" type="curve" smooth="yes"/>
      <point x="191" y="704" type="line"/>
    </contour>
  </outline>
</glyph>
<glyph name="Sampi" format="2">
  <advance width="1200"/>
  <unicode hex="03E0"/>
  <anchor x="600" y="0" name="bottom"/>
  <anchor x="600" y="1374" name="top"/>
  <outline>
    <contour>
      <point x="990" y="0" type="line"/>
      <point x="1137" y="0" type="line"/>
      <point x="595" y="1374" type="line"/>
      <point x="452" y="1374" type="line"/>
      <point x="577" y="1070" type="line"/>
    </contour>
    <contour>
      <point x="63" y="0" type="line"/>
      <point x="208" y="0" type="line"/>
      <point x="675" y="1202" type="line"/>
      <point x="557" y="1224" type="line"/>
    </contour>
    <contour>
      <point x="412" y="5" type="line"/>
      <point x="567" y="0" type="line"/>
      <point x="824" y="790" type="line"/>
      <point x="714" y="835" type="line"/>
    </contour>
  </outline>
</glyph>
<glyph name="sampi" format="2">
  <advance width="1200"/>
  <unicode hex="03E1"/>
  <anchor x="600" y="-386" name="bottom"/>
  <anchor x="600" y="1475" name="top"/>
  <outline>
    <contour>
      <point x="77" y="0" type="line"/>
      <point x="227" y="0" type="line"/>
      <point x="725" y="1017" type="line"/>
      <point x="640" y="1133" type="line"/>
    </contour>
    <contour>
      <point x="483" y="0" type="line"/>
      <point x="623" y="0" type="line"/>
      <point x="904" y="658" type="line"/>
      <point x="815" y="761" type="line"/>
    </contour>
    <contour>
      <point x="205" y="1495" type="curve"/>
      <point x="155" y="1397" type="line"/>
      <point x="637" y="1107"/>
      <point x="849" y="761"/>
      <point x="849" y="202" type="curve" smooth="yes"/>
      <point x="849" y="-36"/>
      <point x="822" y="-243"/>
      <point x="787" y="-400" type="curve"/>
      <point x="924" y="-416" type="line"/>
      <point x="966" y="-261"/>
      <point x="1003" y="-17"/>
      <point x="1003" y="202" type="curve" smooth="yes"/>
      <point x="1003" y="829"/>
      <point x="746" y="1209"/>
    </contour>
  </outline>
</glyph>
<glyph name="E-cy" format="2">
  <advance width="1200"/>
  <unicode hex="0404"/>
  <anchor x="600" y="0" name="bottom"/>
  <anchor x="600" y="1374" name="top"/>
  <outline>
    <contour>
      <point x="702" y="1393" type="curve" smooth="yes"/>
      <point x="399" y="1393"/>
      <point x="129" y="1151"/>
      <point x="129" y="687" type="curve" smooth="yes"/>
      <point x="129" y="229"/>
      <point x="375" y="-20"/>
      <point x="708" y="-20" type="curve" smooth="yes"/>
      <point x="899" y="-20"/>
      <point x="1029" y="51"/>
      <point x="1108" y="123" type="curve"/>
      <point x="1031" y="217" type="line"/>
      <point x="969" y="156"/>
      <point x="869" y="95"/>
      <point x="710" y="95" type="curve" smooth="yes"/>
      <point x="471" y="95"/>
      <point x="279" y="254"/>
      <point x="263" y="651" type="curve"/>
      <point x="905" y="651" type="line"/>
      <point x="905" y="764" type="line"/>
      <point x="269" y="764" type="line"/>
      <point x="297" y="1149"/>
      <point x="489" y="1280"/>
      <point x="709" y="1280" type="curve" smooth="yes"/>
      <point x="815" y="1280"/>
      <point x="921" y="1251"/>
      <point x="1018" y="1180" type="curve"/>
      <point x="1087" y="1265" type="line"/>
      <point x="984" y="1348"/>
      <point x="873" y="1393"/>
    </contour>
  </outline>
</glyph>
<glyph name="Lje-cy" format="2">
  <advance width="1200"/>
  <unicode hex="0409"/>
  <anchor x="600" y="0" name="bottom"/>
  <anchor x="600" y="1374" name="top"/>
  <outline>
    <contour>
      <point x="705" y="1374" type="line"/>
      <point x="221" y="1374" type="line"/>
      <point x="155" y="621" type="line" smooth="yes"/>
      <point x="121" y="224"/>
      <point x="75" y="149"/>
      <point x="13" y="75" type="curve"/>
      <point x="94" y="-17" type="line"/>
      <point x="201" y="70"/>
      <point x="253" y="128"/>
      <point x="295" y="625" type="curve" smooth="yes"/>
      <point x="347" y="1251" type="line"/>
      <point x="557" y="1251" type="line"/>
      <point x="557" y="0" type="line"/>
      <point x="724" y="0" type="line" smooth="yes"/>
      <point x="1019" y="0"/>
      <point x="1200" y="119"/>
      <point x="1200" y="435" type="curve" smooth="yes"/>
      <point x="1200" y="724"/>
      <point x="1040" y="851"/>
      <point x="705" y="851" type="curve"/>
    </contour>
    <contour>
      <point x="739" y="738" type="line" smooth="yes"/>
      <point x="936" y="738"/>
      <point x="1046" y="664"/>
      <point x="1046" y="433" type="curve" smooth="yes"/>
      <point x="1046" y="166"/>
      <point x="929" y="119"/>
      <point x="735" y="119" type="curve" smooth="yes"/>
      <point x="705" y="119" type="line"/>
      <point x="705" y="738" type="line"/>
    </contour>
  </outline>
</glyph>
<glyph name="De-cy" format="2">
  <advance width="1200"/>
  <unicode hex="0414"/>
  <anchor x="600" y="-386" name="bottom"/>
  <anchor x="600" y="1374" name="top"/>
  <outline>
    <contour>
      <point x="1021" y="1374" type="line"/>
      <point x="354" y="1374" type="line"/>
      <point x="299" y="990" type="line" smooth="yes"/>
      <point x="212" y="368"/>
      <point x="209" y="228"/>
      <point x="93" y="116" type="curve"/>
      <point x="154" y="0" type="line"/>
      <point x="974" y="1" type="line"/>
      <point x="1021" y="116" type="line"/>
    </contour>
    <contour>
      <point x="881" y="1253" type="line"/>
      <point x="881" y="116" type="line"/>
      <point x="234" y="116" type="line"/>
      <point x="353" y="227"/>
      <point x="364" y="385"/>
      <point x="436" y="966" type="curve" smooth="yes"/>
      <point x="470" y="1253" type="line"/>
    </contour>
    <component base="descStraight-cy.case" xOffset="433"/>
    <component base="descStraight-cy.case" xScale="-1" xOffset="695"/>
  </outline>
</glyph>
<glyph name="Sha-cy" format="2">
  <advance width="1200"/>
  <unicode hex="0428"/>
  <anchor x="600" y="0" name="bottom"/>
  <anchor x="1121" y="0" name="bottomright"/>
  <anchor x="600" y="1374" name="top"/>
  <outline>
    <contour>
      <point x="1101" y="1374" type="line"/>
      <point x="966" y="1374" type="line"/>
      <point x="966" y="122" type="line"/>
      <point x="667" y="122" type="line"/>
      <point x="667" y="1374" type="line"/>
      <point x="533" y="1374" type="line"/>
      <point x="533" y="122" type="line"/>
      <point x="234" y="122" type="line"/>
      <point x="234" y="1374" type="line"/>
      <point x="99" y="1374" type="line"/>
      <point x="99" y="0" type="line"/>
      <point x="1101" y="0" type="line"/>
    </contour>
  </outline>
</glyph>
<glyph name="de-cy" format="2">
  <advance width="1200"/>
  <unicode hex="0434"/>
  <anchor x="600" y="-386" name="bottom"/>
  <anchor x="600" y="1050" name="top"/>
  <outline>
    <contour>
      <point x="977" y="1050" type="line"/>
      <point x="326" y="1050" type="line"/>
      <point x="303" y="710" type="line" smooth="yes"/>
      <point x="276" y="314"/>
      <point x="229" y="194"/>
      <point x="127" y="109" type="curve"/>
      <point x="197" y="0" type="line"/>
      <point x="908" y="0" type="line"/>
      <point x="977" y="109" type="line"/>
    </contour>
    <contour>
      <point x="843" y="938" type="line"/>
      <point x="843" y="109" type="line"/>
      <point x="237" y="109" type="line"/>
      <point x="364" y="199"/>
      <point x="403" y="318"/>
      <point x="427" y="722" type="curve" smooth="yes"/>
      <point x="440" y="938" type="line"/>
    </contour>
    <component base="descStraight-cy" xScale="-1" xOffset="729"/>
    <component base="descStraight-cy" xOffset="378"/>
  </outline>
</glyph>
<glyph name="ii-cy" format="2">
  <advance width="1200"/>
  <unicode hex="0438"/>
  <anchor x="600" y="0" name="bottom"/>
  <anchor x="960" y="0" name="bottomright"/>
  <anchor x="600" y="1050" name="top"/>
  <outline>
    <contour>
      <point x="981" y="1050" type="line"/>
      <point x="808" y="1050" type="line"/>
      <point x="338" y="176" type="line"/>
      <point x="343" y="244"/>
      <point x="348" y="385"/>
      <point x="348" y="514" type="curve" smooth="yes"/>
      <point x="348" y="1050" type="line"/>
      <point x="219" y="1050" type="line"/>
      <point x="219" y="0" type="line"/>
      <point x="387" y="0" type="line"/>
      <point x="864" y="881" type="line"/>
      <point x="856" y="789"/>
      <point x="852" y="663"/>
      <point x="852" y="539" type="curve" smooth="yes"/>
      <point x="852" y="0" type="line"/>
      <point x="981" y="0" type="line"/>
    </contour>
  </outline>
</glyph>
<glyph name="ka-cy" format="2">
  <advance width="1200"/>
  <unicode hex="043A"/>
  <anchor x="600" y="0" name="bottom"/>
  <anchor x="1018" y="0" name="bottomright"/>
  <anchor x="640" y="1050" name="top"/>
  <outline>
    <contour>
      <point x="230" y="0" type="line"/>
      <point x="354" y="0" type="line"/>
      <point x="354" y="504" type="line"/>
      <point x="583" y="504" type="line"/>
      <point x="963" y="0" type="line"/>
      <point x="1128" y="0" type="line"/>
      <point x="693" y="564" type="line"/>
      <point x="1065" y="1050" type="line"/>
      <point x="911" y="1050" type="line"/>
      <point x="585" y="618" type="line"/>
      <point x="354" y="618" type="line"/>
      <point x="354" y="1050" type="line"/>
      <point x="230" y="1050" type="line"/>
    </contour>
  </outline>
</glyph>
<glyph name="em-cy" format="2">
  <advance width="1200"/>
  <unicode hex="043C"/>
  <anchor x="600" y="0" name="bottom"/>
  <anchor x="1121" y="0" name="bottomright"/>
  <anchor x="600" y="1050" name="top"/>
  <outline>
    <contour>
      <point x="1025" y="1050" type="line"/>
      <point x="838" y="1050" type="line"/>
      <point x="607" y="312" type="line"/>
      <point x="359" y="1050" type="line"/>
      <point x="173" y="1050" type="line"/>
      <point x="98" y="0" type="line"/>
      <point x="223" y="0" type="line"/>
      <point x="258" y="568" type="line" smooth="yes"/>
      <point x="264" y="669"/>
      <point x="268" y="811"/>
      <point x="266" y="919" type="curve"/>
      <point x="274" y="919" type="line"/>
      <point x="529" y="180" type="line"/>
      <point x="679" y="180" type="line"/>
      <point x="906" y="919" type="line"/>
      <point x="914" y="919" type="line"/>
      <point x="914" y="777"/>
      <point x="919" y="668"/>
      <point x="928" y="560" type="curve" smooth="yes"/>
      <point x="977" y="0" type="line"/>
      <point x="1102" y="0" type="line"/>
    </contour>
  </outline>
</glyph>
<glyph name="en-cy" format="2">
  <advance width="1200"/>
  <unicode hex="043D"/>
  <anchor x="1001" y="0" name="bottomright"/>
  <outline>
    <contour>
      <point x="857" y="0" type="line"/>
      <point x="981" y="0" type="line"/>
      <point x="981" y="1050" type="line"/>
      <point x="857" y="1050" type="line"/>
      <point x="857" y="592" type="line"/>
      <point x="343" y="592" type="line"/>
      <point x="343" y="1050" type="line"/>
      <point x="219" y="1050" type="line"/>
      <point x="219" y="0" type="line"/>
      <point x="343" y="0" type="line"/>
      <point x="343" y="483" type="line"/>
      <point x="857" y="483" type="line"/>
    </contour>
  </outline>
</glyph>
<glyph name="yeru-cy" format="2">
  <advance width="1200"/>
  <unicode hex="044B"/>
  <anchor x="600" y="0" name="bottom"/>
  <anchor x="600" y="1050" name="top"/>
  <outline>
    <contour>
      <point x="273" y="1050" type="line"/>
      <point x="145" y="1050" type="line"/>
      <point x="145" y="0" type="line"/>
      <point x="351" y="0" type="line" smooth="yes"/>
      <point x="619" y="0"/>
      <point x="801" y="104"/>
      <point x="801" y="362" type="curve" smooth="yes"/>
      <point x="801" y="604"/>
      <point x="628" y="703"/>
      <point x="360" y="703" type="curve" smooth="yes"/>
      <point x="273" y="703" type="line"/>
    </contour>
    <contour>
      <point x="364" y="596" type="line" smooth="yes"/>
      <point x="566" y="596"/>
      <point x="659" y="533"/>
      <point x="659" y="361" type="curve" smooth="yes"/>
      <point x="659" y="162"/>
      <point x="547" y="112"/>
      <point x="359" y="112" type="curve" smooth="yes"/>
      <point x="273" y="112" type="line"/>
      <point x="273" y="596" type="line"/>
    </contour>
    <contour>
      <point x="1055" y="1050" type="line"/>
      <point x="924" y="1050" type="line"/>
      <point x="924" y="0" type="line"/>
      <point x="1055" y="0" type="line"/>
    </contour>
  </outline>
</glyph>
<glyph name="eiotified-cy" format="2">
  <advance width="1200"/>
  <unicode hex="0465"/>
  <anchor x="600" y="0" name="bottom"/>
  <anchor x="600" y="1050" name="top"/>
  <outline>
    <contour>
      <point x="312" y="1050" type="line"/>
      <point x="170" y="1050" type="line"/>
      <point x="170" y="0" type="line"/>
      <point x="312" y="0" type="line"/>
      <point x="312" y="478" type="line"/>
      <point x="513" y="478" type="line"/>
      <point x="513" y="597" type="line"/>
      <point x="312" y="597" type="line"/>
    </contour>
    <contour>
      <point x="877" y="1069" type="curve" smooth="yes"/>
      <point x="596" y="1069"/>
      <point x="448" y="833"/>
      <point x="448" y="521" type="curve" smooth="yes"/>
      <point x="448" y="186"/>
      <point x="617" y="-20"/>
      <point x="873" y="-20" type="curve" smooth="yes"/>
      <point x="964" y="-20"/>
      <point x="1077" y="18"/>
      <point x="1164" y="103" type="curve"/>
      <point x="1083" y="195" type="line"/>
      <point x="1019" y="136"/>
      <point x="956" y="105"/>
      <point x="865" y="105" type="curve" smooth="yes"/>
      <point x="708" y="105"/>
      <point x="592" y="222"/>
      <point x="583" y="482" type="curve"/>
      <point x="1013" y="482" type="line"/>
      <point x="1013" y="596" type="line"/>
      <point x="586" y="596" type="line"/>
      <point x="611" y="812"/>
      <point x="692" y="951"/>
      <point x="869" y="951" type="curve" smooth="yes"/>
      <point x="960" y="951"/>
      <point x="1028" y="921"/>
      <point x="1101" y="862" type="curve"/>
      <point x="1173" y="956" type="line"/>
      <point x="1081" y="1033"/>
      <point x="990" y="1069"/>
    </contour>
  </outline>
</glyph>
<glyph name="yuslittle-cy" format="2">
  <advance width="1200"/>
  <unicode hex="0467"/>
  <anchor x="600" y="0" name="bottom"/>
  <anchor x="600" y="1050" name="top"/>
  <outline>
    <contour>
      <point x="669" y="1050" type="line"/>
      <point x="535" y="1050" type="line"/>
      <point x="84" y="0" type="line"/>
      <point x="222" y="0" type="line"/>
      <point x="602" y="914" type="line"/>
      <point x="972" y="0" type="line"/>
      <point x="1119" y="0" type="line"/>
    </contour>
    <contour>
      <point x="872" y="537" type="line"/>
      <point x="333" y="537" type="line"/>
      <point x="333" y="423" type="line"/>
      <point x="872" y="423" type="line"/>
    </contour>
    <contour>
      <point x="536" y="538" type="line"/>
      <point x="536" y="0" type="line"/>
      <point x="655" y="0" type="line"/>
      <point x="655" y="538" type="line"/>
    </contour>
  </outline>
</glyph>
<glyph name="yuslittleiotified-cy" format="2">
  <advance width="1200"/>
  <unicode hex="0469"/>
  <anchor x="600" y="0" name="bottom"/>
  <anchor x="600" y="1050" name="top"/>
  <outline>
    <contour>
      <point x="701" y="0" type="line"/>
      <point x="822" y="0" type="line"/>
      <point x="822" y="535" type="line"/>
      <point x="701" y="535" type="line"/>
    </contour>
    <contour>
      <point x="127" y="0" type="line"/>
      <point x="268" y="0" type="line"/>
      <point x="268" y="425" type="line"/>
      <point x="1039" y="425" type="line"/>
      <point x="1039" y="549" type="line"/>
      <point x="268" y="549" type="line"/>
      <point x="268" y="1050" type="line"/>
      <point x="127" y="1050" type="line"/>
    </contour>
    <contour>
      <point x="365" y="0" type="line"/>
      <point x="498" y="0" type="line"/>
      <point x="765" y="920" type="line"/>
      <point x="1028" y="0" type="line"/>
      <point x="1171" y="0" type="line"/>
      <point x="855" y="1050" type="line"/>
      <point x="688" y="1050" type="line"/>
    </contour>
  </outline>
</glyph>
<glyph name="iishorttail-cy" format="2">
  <advance width="1200"/>
  <unicode hex="048B"/>
  <outline>
    <contour>
      <point x="954" y="1050" type="line"/>
      <point x="784" y="1050" type="line"/>
      <point x="307" y="125" type="line"/>
      <point x="315" y="181"/>
      <point x="326" y="348"/>
      <point x="326" y="514" type="curve" smooth="yes"/>
      <point x="326" y="1050" type="line"/>
      <point x="203" y="1050" type="line"/>
      <point x="203" y="0" type="line"/>
      <point x="370" y="0" type="line"/>
      <point x="843" y="937" type="line"/>
      <point x="838" y="876"/>
      <point x="831" y="727"/>
      <point x="831" y="539" type="curve" smooth="yes"/>
      <point x="831" y="0" type="line"/>
      <point x="954" y="0" type="line"/>
    </contour>
    <component base="breve-cy" xOffset="-24"/>
    <component base="descTail-cy" xOffset="269"/>
  </outline>
</glyph>
<glyph name="Semisoftsign-cy" format="2">
  <advance width="1200"/>
  <unicode hex="048C"/>
  <anchor x="600" y="0" name="bottom"/>
  <anchor x="600" y="1374" name="top"/>
  <outline>
    <contour>
      <point x="274" y="0" type="line"/>
      <point x="592" y="0" type="line" smooth="yes"/>
      <point x="911" y="0"/>
      <point x="1133" y="123"/>
      <point x="1133" y="437" type="curve" smooth="yes"/>
      <point x="1133" y="714"/>
      <point x="935" y="848"/>
      <point x="630" y="848" type="curve" smooth="yes"/>
      <point x="369" y="848" type="line"/>
      <point x="369" y="738" type="line"/>
      <point x="639" y="738" type="line" smooth="yes"/>
      <point x="855" y="738"/>
      <point x="993" y="664"/>
      <point x="993" y="432" type="curve" smooth="yes"/>
      <point x="993" y="175"/>
      <point x="837" y="112"/>
      <point x="625" y="112" type="curve" smooth="yes"/>
      <point x="401" y="112" type="line"/>
      <point x="401" y="1374" type="line"/>
      <point x="274" y="1374" type="line"/>
    </contour>
    <contour>
      <point x="60" y="1068" type="line"/>
      <point x="671" y="1068" type="line"/>
      <point x="671" y="1177" type="line"/>
      <point x="274" y="1177" type="line"/>
      <point x="60" y="1177" type="line"/>
    </contour>
  </outline>
</glyph>
<glyph name="ertick-cy" format="2">
  <advance width="1200"/>
  <unicode hex="048F"/>
  <anchor x="600" y="-386" name="bottom"/>
  <anchor x="600" y="1050" name="top"/>
  <outline>
    <contour>
      <point x="509" y="438" type="line"/>
      <point x="889" y="-184" type="line"/>
      <point x="1047" y="-184" type="line"/>
      <point x="667" y="438" type="line"/>
    </contour>
    <contour>
      <point x="673" y="1069" type="curve" smooth="yes"/>
      <point x="538" y="1069"/>
      <point x="427" y="1002"/>
      <point x="353" y="895" type="curve"/>
      <point x="339" y="1050" type="line"/>
      <point x="236" y="1050" type="line"/>
      <point x="236" y="-418" type="line"/>
      <point x="360" y="-401" type="line"/>
      <point x="360" y="105" type="line"/>
      <point x="433" y="21"/>
      <point x="529" y="-20"/>
      <point x="647" y="-20" type="curve" smooth="yes"/>
      <point x="925" y="-20"/>
      <point x="1052" y="209"/>
      <point x="1052" y="525" type="curve" smooth="yes"/>
      <point x="1052" y="851"/>
      <point x="954" y="1069"/>
    </contour>
    <contour>
      <point x="651" y="963" type="curve" smooth="yes"/>
      <point x="826" y="963"/>
      <point x="906" y="806"/>
      <point x="906" y="527" type="curve" smooth="yes"/>
      <point x="906" y="194"/>
      <point x="840" y="93"/>
      <point x="618" y="93" type="curve" smooth="yes"/>
      <point x="518" y="93"/>
      <point x="419" y="149"/>
      <point x="360" y="236" type="curve"/>
      <point x="360" y="780" type="line"/>
      <point x="421" y="868"/>
      <point x="521" y="963"/>
    </contour>
  </outline>
</glyph>
<glyph name="zhedescender-cy" format="2">
  <advance width="1200"/>
  <unicode hex="0497"/>
  <outline>
    <contour>
      <point x="535" y="0" type="line"/>
      <point x="665" y="0" type="line"/>
      <point x="665" y="501" type="line"/>
      <point x="790" y="501" type="line"/>
      <point x="1000" y="0" type="line"/>
      <point x="1139" y="0" type="line"/>
      <point x="901" y="564" type="line"/>
      <point x="1117" y="1050" type="line"/>
      <point x="982" y="1050" type="line"/>
      <point x="794" y="620" type="line"/>
      <point x="665" y="620" type="line"/>
      <point x="665" y="1050" type="line"/>
      <point x="535" y="1050" type="line"/>
      <point x="535" y="620" type="line"/>
      <point x="406" y="620" type="line"/>
      <point x="223" y="1050" type="line"/>
      <point x="83" y="1050" type="line"/>
      <point x="298" y="564" type="line"/>
      <point x="60" y="0" type="line"/>
      <point x="190" y="0" type="line"/>
      <point x="405" y="501" type="line"/>
      <point x="535" y="501" type="line"/>
    </contour>
    <contour>
      <point x="1194" y="109" type="line"/>
      <point x="1020" y="109" type="line"/>
      <point x="1000" y="0" type="line"/>
      <point x="1069" y="0" type="line"/>
      <point x="1095" y="-278" type="line"/>
      <point x="1194" y="-278" type="line"/>
    </contour>
  </outline>
</glyph>
<glyph name="Enghe-cy" format="2">
  <advance width="1200"/>
  <unicode hex="04A4"/>
  <outline>
    <contour>
      <point x="899" y="1374" type="line"/>
      <point x="911" y="1264" type="line"/>
      <point x="1189" y="1264" type="line"/>
      <point x="1201" y="1374" type="line"/>
    </contour>
    <contour>
      <point x="787" y="0" type="line"/>
      <point x="914" y="0" type="line"/>
      <point x="914" y="1374" type="line"/>
      <point x="787" y="1374" type="line"/>
      <point x="787" y="776" type="line"/>
      <point x="284" y="776" type="line"/>
      <point x="284" y="1374" type="line"/>
      <point x="156" y="1374" type="line"/>
      <point x="156" y="0" type="line"/>
      <point x="284" y="0" type="line"/>
      <point x="284" y="676" type="line"/>
      <point x="787" y="676" type="line"/>
    </contour>
  </outline>
</glyph>
<glyph name="Cheverticalstroke-cy" format="2">
  <advance width="1200"/>
  <unicode hex="04B8"/>
  <anchor x="600" y="0" name="bottom"/>
  <anchor x="867" y="0" name="bottomleft"/>
  <anchor x="1034" y="0" name="bottomright"/>
  <anchor x="581" y="1374" name="top"/>
  <outline>
    <contour>
      <point x="633" y="1067" type="line"/>
      <point x="521" y="1067" type="line"/>
      <point x="521" y="577" type="line"/>
      <point x="521" y="236" type="line"/>
      <point x="633" y="236" type="line"/>
    </contour>
    <component base="Che-cy"/>
  </outline>
</glyph>
<glyph name="cheverticalstroke-cy" format="2">
  <advance width="1200"/>
  <unicode hex="04B9"/>
  <anchor x="600" y="0" name="bottom"/>
  <anchor x="812" y="0" name="bottomleft"/>
  <anchor x="977" y="0" name="bottomright"/>
  <anchor x="574" y="1050" name="top"/>
  <outline>
    <contour>
      <point x="605" y="771" type="line"/>
      <point x="499" y="771" type="line"/>
      <point x="499" y="188" type="line"/>
      <point x="605" y="188" type="line"/>
    </contour>
    <component base="che-cy"/>
  </outline>
</glyph>
<glyph name="shha-cy" format="2">
  <advance width="1200"/>
  <unicode hex="04BB"/>
  <anchor x="600" y="0" name="bottom"/>
  <anchor x="1003" y="0" name="bottomright"/>
  <anchor x="600" y="1475" name="top"/>
  <outline>
    <contour>
      <point x="859" y="0" type="line"/>
      <point x="983" y="0" type="line"/>
      <point x="983" y="627" type="line" smooth="yes"/>
      <point x="983" y="818"/>
      <point x="860" y="943"/>
      <point x="668" y="943" type="curve" smooth="yes"/>
      <point x="493" y="943"/>
      <point x="377" y="846"/>
      <point x="305" y="706" type="curve"/>
      <point x="349" y="636" type="line"/>
      <point x="425" y="759"/>
      <point x="512" y="840"/>
      <point x="658" y="840" type="curve" smooth="yes"/>
      <point x="778" y="840"/>
      <point x="859" y="778"/>
      <point x="859" y="599" type="curve" smooth="yes"/>
    </contour>
    <contour>
      <point x="220" y="0" type="line"/>
      <point x="344" y="0" type="line"/>
      <point x="344" y="1487" type="line"/>
      <point x="220" y="1472" type="line"/>
    </contour>
  </outline>
</glyph>
<glyph name="kahook-cy" format="2">
  <advance width="1200"/>
  <unicode hex="04C4"/>
  <anchor x="600" y="-386" name="bottom"/>
  <anchor x="600" y="1050" name="top"/>
  <outline>
    <contour>
      <point x="236" y="0" type="line"/>
      <point x="360" y="0" type="line"/>
      <point x="360" y="480" type="line"/>
      <point x="578" y="480" type="line"/>
      <point x="593" y="541" type="line"/>
      <point x="941" y="1050" type="line"/>
      <point x="795" y="1050" type="line"/>
      <point x="498" y="594" type="line"/>
      <point x="360" y="594" type="line"/>
      <point x="360" y="1050" type="line"/>
      <point x="236" y="1050" type="line"/>
    </contour>
    <contour>
      <point x="819" y="0" type="line"/>
      <point x="943" y="0" type="line"/>
      <point x="943" y="266" type="line" smooth="yes"/>
      <point x="943" y="496"/>
      <point x="807" y="600"/>
      <point x="580" y="600" type="curve"/>
      <point x="570" y="480" type="line"/>
      <point x="751" y="480"/>
      <point x="819" y="421"/>
      <point x="819" y="233" type="curve" smooth="yes"/>
    </contour>
    <component base="hookHELPER" xOffset="436"/>
  </outline>
</glyph>
<glyph name="Entail-cy" format="2">
  <advance width="1200"/>
  <unicode hex="04C9"/>
  <outline>
    <contour>
      <point x="832" y="0" type="line"/>
      <point x="959" y="0" type="line"/>
      <point x="959" y="1374" type="line"/>
      <point x="832" y="1374" type="line"/>
      <point x="832" y="776" type="line"/>
      <point x="289" y="776" type="line"/>
      <point x="289" y="1374" type="line"/>
      <point x="162" y="1374" type="line"/>
      <point x="162" y="0" type="line"/>
      <point x="289" y="0" type="line"/>
      <point x="289" y="676" type="line"/>
      <point x="832" y="676" type="line"/>
    </contour>
    <component base="descTail-cy.case" xOffset="324"/>
  </outline>
</glyph>
<glyph name="Emtail-cy" format="2">
  <advance width="1200"/>
  <unicode hex="04CD"/>
  <outline>
    <contour>
      <point x="970" y="1374" type="line"/>
      <point x="754" y="1374" type="line"/>
      <point x="546" y="417" type="line"/>
      <point x="327" y="1374" type="line"/>
      <point x="114" y="1374" type="line"/>
      <point x="36" y="0" type="line"/>
      <point x="165" y="0" type="line"/>
      <point x="209" y="760" type="line" smooth="yes"/>
      <point x="219" y="918"/>
      <point x="220" y="1206"/>
      <point x="224" y="1230" type="curve"/>
      <point x="465" y="250" type="line"/>
      <point x="617" y="250" type="line"/>
      <point x="845" y="1230" type="line"/>
      <point x="850" y="1216"/>
      <point x="854" y="940"/>
      <point x="866" y="757" type="curve" smooth="yes"/>
      <point x="916" y="0" type="line"/>
      <point x="1048" y="0" type="line"/>
    </contour>
    <contour>
      <point x="1193" y="89" type="line"/>
      <point x="970" y="89" type="line"/>
      <point x="969" y="0" type="line"/>
      <point x="1003" y="0" type="line"/>
      <point x="938" y="-278" type="line"/>
      <point x="1050" y="-278" type="line"/>
    </contour>
  </outline>
</glyph>
<glyph name="emtail-cy" format="2">
  <advance width="1200"/>
  <unicode hex="04CE"/>
  <outline>
    <contour>
      <point x="984" y="1050" type="line"/>
      <point x="801" y="1050" type="line"/>
      <point x="602" y="312" type="line"/>
      <point x="385" y="1050" type="line"/>
      <point x="199" y="1050" type="line"/>
      <point x="124" y="0" type="line"/>
      <point x="253" y="0" type="line"/>
      <point x="288" y="568" type="line" smooth="yes"/>
      <point x="294" y="669"/>
      <point x="298" y="811"/>
      <point x="292" y="933" type="curve"/>
      <point x="524" y="180" type="line"/>
      <point x="673" y="180" type="line"/>
      <point x="878" y="933" type="line"/>
      <point x="870" y="777"/>
      <point x="874" y="668"/>
      <point x="883" y="560" type="curve" smooth="yes"/>
      <point x="932" y="0" type="line"/>
      <point x="1062" y="0" type="line"/>
    </contour>
    <contour>
      <point x="1183" y="88" type="line"/>
      <point x="954" y="88" type="line"/>
      <point x="961" y="0" type="line"/>
      <point x="1025" y="0" type="line"/>
      <point x="959" y="-278" type="line"/>
      <point x="1069" y="-278" type="line"/>
    </contour>
  </outline>
</glyph>
<glyph name="Schwa-cy" format="2">
  <advance width="1200"/>
  <unicode hex="04D8"/>
  <anchor x="600" y="0" name="bottom"/>
  <anchor x="587" y="1374" name="top"/>
  <outline>
    <contour>
      <point x="104" y="660" type="curve" smooth="yes"/>
      <point x="104" y="198"/>
      <point x="303" y="-20"/>
      <point x="595" y="-20" type="curve" smooth="yes"/>
      <point x="898" y="-20"/>
      <point x="1088" y="254"/>
      <point x="1088" y="708" type="curve" smooth="yes"/>
      <point x="1088" y="1164"/>
      <point x="913" y="1393"/>
      <point x="587" y="1393" type="curve" smooth="yes"/>
      <point x="418" y="1393"/>
      <point x="292" y="1329"/>
      <point x="193" y="1245" type="curve"/>
      <point x="264" y="1163" type="line"/>
      <point x="360" y="1234"/>
      <point x="453" y="1282"/>
      <point x="589" y="1282" type="curve" smooth="yes"/>
      <point x="806" y="1282"/>
      <point x="940" y="1136"/>
      <point x="954" y="747" type="curve"/>
      <point x="109" y="747" type="line"/>
      <point x="105" y="713"/>
      <point x="104" y="677"/>
    </contour>
    <contour>
      <point x="598" y="94" type="curve" smooth="yes"/>
      <point x="365" y="94"/>
      <point x="249" y="243"/>
      <point x="231" y="627" type="curve"/>
      <point x="954" y="627" type="line"/>
      <point x="931" y="262"/>
      <point x="807" y="94"/>
    </contour>
  </outline>
</glyph>
<glyph name="schwa-cy" format="2">
  <advance width="1200"/>
  <unicode hex="04D9"/>
  <anchor x="593" y="1050" name="top"/>
  <outline>
    <contour>
      <point x="583" y="1069" type="curve" smooth="yes"/>
      <point x="443" y="1069"/>
      <point x="334" y="1025"/>
      <point x="242" y="949" type="curve"/>
      <point x="304" y="852" type="line"/>
      <point x="396" y="930"/>
      <point x="478" y="953"/>
      <point x="584" y="953" type="curve" smooth="yes"/>
      <point x="787" y="953"/>
      <point x="879" y="828"/>
      <point x="889" y="521" type="curve"/>
      <point x="889" y="511" type="line"/>
      <point x="889" y="199"/>
      <point x="784" y="91"/>
      <point x="584" y="91" type="curve" smooth="yes"/>
      <point x="400" y="91"/>
      <point x="293" y="217"/>
      <point x="293" y="444" type="curve" smooth="yes"/>
      <point x="293" y="452"/>
      <point x="293" y="456"/>
      <point x="293" y="463" type="curve"/>
      <point x="918" y="463" type="line"/>
      <point x="918" y="574" type="line"/>
      <point x="171" y="574" type="line"/>
      <point x="167" y="549"/>
      <point x="166" y="523"/>
      <point x="166" y="489" type="curve" smooth="yes"/>
      <point x="166" y="172"/>
      <point x="325" y="-20"/>
      <point x="584" y="-20" type="curve" smooth="yes"/>
      <point x="858" y="-20"/>
      <point x="1032" y="175"/>
      <point x="1032" y="525" type="curve" smooth="yes"/>
      <point x="1032" y="861"/>
      <point x="902" y="1069"/>
    </contour>
  </outline>
</glyph>
<glyph name="dzeabkhasian-cy" format="2">
  <advance width="1200"/>
  <unicode hex="04E1"/>
  <outline>
    <contour>
      <point x="563" y="-418" type="curve" smooth="yes"/>
      <point x="823" y="-418"/>
      <point x="1018" y="-257"/>
      <point x="1018" y="4" type="curve" smooth="yes"/>
      <point x="1018" y="267"/>
      <point x="840" y="404"/>
      <point x="535" y="404" type="curve" smooth="yes"/>
      <point x="459" y="404" type="line"/>
      <point x="375" y="297" type="line"/>
      <point x="538" y="297" type="line" smooth="yes"/>
      <point x="768" y="297"/>
      <point x="879" y="216"/>
      <point x="879" y="18" type="curve" smooth="yes"/>
      <point x="879" y="-193"/>
      <point x="763" y="-306"/>
      <point x="565" y="-306" type="curve" smooth="yes"/>
      <point x="415" y="-306"/>
      <point x="322" y="-268"/>
      <point x="228" y="-168" type="curve"/>
      <point x="139" y="-235" type="line"/>
      <point x="241" y="-362"/>
      <point x="373" y="-418"/>
    </contour>
    <contour>
      <point x="375" y="405" type="line"/>
      <point x="375" y="297" type="line"/>
      <point x="464" y="351" type="line"/>
      <point x="977" y="944" type="line"/>
      <point x="977" y="1050" type="line"/>
      <point x="199" y="1050" type="line"/>
      <point x="199" y="936" type="line"/>
      <point x="830" y="936" type="line"/>
    </contour>
  </outline>
</glyph>
<glyph name="kominje-cy" format="2">
  <advance width="1200"/>
  <unicode hex="050B"/>
  <anchor x="600" y="0" name="bottom"/>
  <anchor x="600" y="1050" name="top"/>
  <outline>
    <contour>
      <point x="575" y="394" type="line"/>
      <point x="717" y="394" type="line"/>
      <point x="717" y="1050" type="line"/>
      <point x="575" y="1050" type="line"/>
      <point x="575" y="591" type="line"/>
      <point x="244" y="591" type="line"/>
      <point x="244" y="1050" type="line"/>
      <point x="103" y="1050" type="line"/>
      <point x="103" y="0" type="line"/>
      <point x="244" y="0" type="line"/>
      <point x="244" y="481" type="line"/>
      <point x="575" y="481" type="line"/>
    </contour>
    <contour>
      <point x="854" y="-25" type="curve" smooth="yes"/>
      <point x="1035" y="-25"/>
      <point x="1186" y="125"/>
      <point x="1186" y="503" type="curve" smooth="yes"/>
      <point x="1186" y="594"/>
      <point x="1182" y="674"/>
      <point x="1177" y="752" type="curve"/>
      <point x="1033" y="752" type="line"/>
      <point x="1038" y="666"/>
      <point x="1042" y="594"/>
      <point x="1042" y="498" type="curve" smooth="yes"/>
      <point x="1042" y="179"/>
      <point x="950" y="94"/>
      <point x="855" y="94" type="curve" smooth="yes"/>
      <point x="759" y="94"/>
      <point x="717" y="182"/>
      <point x="717" y="285" type="curve" smooth="yes"/>
      <point x="717" y="489" type="line"/>
      <point x="575" y="530" type="line"/>
      <point x="575" y="294" type="line" smooth="yes"/>
      <point x="575" y="70"/>
      <point x="712" y="-25"/>
    </contour>
  </outline>
</glyph>
<glyph name="komitje-cy" format="2">
  <advance width="1200"/>
  <unicode hex="050F"/>
  <anchor x="600" y="0" name="bottom"/>
  <anchor x="600" y="1050" name="top"/>
  <outline>
    <contour>
      <point x="690" y="-25" type="curve" smooth="yes"/>
      <point x="875" y="-25"/>
      <point x="1088" y="125"/>
      <point x="1088" y="501" type="curve" smooth="yes"/>
      <point x="1088" y="603"/>
      <point x="1085" y="677"/>
      <point x="1082" y="750" type="curve"/>
      <point x="949" y="750" type="line"/>
      <point x="953" y="673"/>
      <point x="955" y="606"/>
      <point x="955" y="508" type="curve" smooth="yes"/>
      <point x="955" y="180"/>
      <point x="822" y="88"/>
      <point x="691" y="88" type="curve" smooth="yes"/>
      <point x="573" y="88"/>
      <point x="491" y="168"/>
      <point x="491" y="347" type="curve" smooth="yes"/>
      <point x="491" y="904" type="line"/>
      <point x="367" y="945" type="line"/>
      <point x="367" y="318" type="line" smooth="yes"/>
      <point x="367" y="103"/>
      <point x="508" y="-25"/>
    </contour>
    <contour>
      <point x="367" y="488" type="line"/>
      <point x="491" y="488" type="line"/>
      <point x="491" y="936" type="line"/>
      <point x="830" y="936" type="line"/>
      <point x="845" y="1050" type="line"/>
      <point x="9" y="1050" type="line"/>
      <point x="9" y="936" type="line"/>
      <point x="367" y="936" type="line"/>
    </contour>
  </outline>
</glyph>
<glyph name="reversedze-cy" format="2">
  <advance width="1200"/>
  <unicode hex="0511"/>
  <outline>
    <contour>
      <point x="819" y="611" type="line"/>
      <point x="614" y="611" type="line" smooth="yes"/>
      <point x="465" y="611"/>
      <point x="369" y="680"/>
      <point x="369" y="780" type="curve" smooth="yes"/>
      <point x="369" y="903"/>
      <point x="464" y="960"/>
      <point x="638" y="960" type="curve" smooth="yes"/>
      <point x="744" y="960"/>
      <point x="872" y="925"/>
      <point x="972" y="861" type="curve"/>
      <point x="1035" y="942" type="line"/>
      <point x="934" y="1019"/>
      <point x="773" y="1069"/>
      <point x="635" y="1069" type="curve" smooth="yes"/>
      <point x="414" y="1069"/>
      <point x="238" y="971"/>
      <point x="238" y="786" type="curve" smooth="yes"/>
      <point x="238" y="673"/>
      <point x="329" y="600"/>
      <point x="439" y="562" type="curve"/>
      <point x="334" y="560"/>
      <point x="178" y="475"/>
      <point x="178" y="316" type="curve" smooth="yes"/>
      <point x="178" y="97"/>
      <point x="368" y="-20"/>
      <point x="632" y="-20" type="curve" smooth="yes"/>
      <point x="833" y="-20"/>
      <point x="982" y="51"/>
      <point x="1075" y="129" type="curve"/>
      <point x="1013" y="216" type="line"/>
      <point x="917" y="143"/>
      <point x="791" y="93"/>
      <point x="630" y="93" type="curve" smooth="yes"/>
      <point x="421" y="93"/>
      <point x="317" y="178"/>
      <point x="317" y="307" type="curve" smooth="yes"/>
      <point x="317" y="435"/>
      <point x="419" y="493"/>
      <point x="607" y="493" type="curve" smooth="yes"/>
      <point x="810" y="493" type="line"/>
    </contour>
  </outline>
</glyph>
<glyph name="yae-cy" format="2">
  <advance width="1200"/>
  <unicode hex="0519"/>
  <anchor x="600" y="0" name="bottom"/>
  <anchor x="600" y="1050" name="top"/>
  <outline>
    <contour>
      <point x="648" y="946" type="line"/>
      <point x="889" y="1050" type="line"/>
      <point x="441" y="1050" type="line"/>
      <point x="219" y="1050"/>
      <point x="48" y="930"/>
      <point x="48" y="725" type="curve" smooth="yes"/>
      <point x="48" y="583"/>
      <point x="121" y="488"/>
      <point x="250" y="438" type="curve"/>
      <point x="340" y="419" type="line"/>
      <point x="528" y="419" type="line"/>
      <point x="528" y="532" type="line"/>
      <point x="425" y="532" type="line" smooth="yes"/>
      <point x="265" y="532"/>
      <point x="187" y="599"/>
      <point x="187" y="725" type="curve" smooth="yes"/>
      <point x="187" y="879"/>
      <point x="276" y="946"/>
      <point x="430" y="946" type="curve" smooth="yes"/>
    </contour>
    <contour>
      <point x="14" y="0" type="line"/>
      <point x="147" y="0" type="line"/>
      <point x="375" y="447" type="line"/>
      <point x="251" y="478" type="line"/>
    </contour>
    <contour>
      <point x="610" y="475" type="curve"/>
      <point x="1180" y="475" type="line"/>
      <point x="1181" y="496"/>
      <point x="1183" y="525"/>
      <point x="1183" y="561" type="curve" smooth="yes"/>
      <point x="1183" y="874"/>
      <point x="1074" y="1069"/>
      <point x="845" y="1069" type="curve" smooth="yes"/>
      <point x="618" y="1069"/>
      <point x="470" y="844"/>
      <point x="470" y="527" type="curve" smooth="yes"/>
      <point x="470" y="214"/>
      <point x="614" y="-20"/>
      <point x="858" y="-20" type="curve" smooth="yes"/>
      <point x="1006" y="-20"/>
      <point x="1127" y="52"/>
      <point x="1193" y="102" type="curve"/>
      <point x="1132" y="183" type="line"/>
      <point x="1037" y="120"/>
      <point x="978" y="90"/>
      <point x="864" y="90" type="curve" smooth="yes"/>
      <point x="725" y="90"/>
      <point x="620" y="205"/>
    </contour>
    <contour>
      <point x="849" y="955" type="curve" smooth="yes"/>
      <point x="985" y="955"/>
      <point x="1051" y="829"/>
      <point x="1056" y="591" type="curve"/>
      <point x="612" y="591" type="line"/>
      <point x="627" y="836"/>
      <point x="713" y="955"/>
    </contour>
  </outline>
</glyph>
<glyph name="Elmiddlehook-cy" format="2">
  <advance width="1200"/>
  <unicode hex="0520"/>
  <anchor x="600" y="-386" name="bottom"/>
  <anchor x="600" y="1374" name="top"/>
  <outline>
    <contour>
      <point x="89" y="-17" type="line"/>
      <point x="185" y="98"/>
      <point x="246" y="161"/>
      <point x="290" y="712" type="curve" smooth="yes"/>
      <point x="331" y="1251" type="line"/>
      <point x="543" y="1251" type="line"/>
      <point x="543" y="0" type="line"/>
      <point x="695" y="0" type="line"/>
      <point x="695" y="1374" type="line"/>
      <point x="190" y="1374" type="line"/>
      <point x="136" y="737" type="line" smooth="yes"/>
      <point x="91" y="209"/>
      <point x="55" y="156"/>
      <point x="-7" y="84" type="curve"/>
    </contour>
    <contour>
      <point x="884" y="-414" type="curve" smooth="yes"/>
      <point x="1048" y="-414"/>
      <point x="1168" y="-323"/>
      <point x="1168" y="-125" type="curve" smooth="yes"/>
      <point x="1168" y="2" type="line"/>
      <point x="1014" y="2" type="line"/>
      <point x="1014" y="-132" type="line" smooth="yes"/>
      <point x="1014" y="-236"/>
      <point x="967" y="-287"/>
      <point x="884" y="-287" type="curve" smooth="yes"/>
      <point x="813" y="-287"/>
      <point x="778" y="-269"/>
      <point x="727" y="-239" type="curve"/>
      <point x="669" y="-344" type="line"/>
      <point x="710" y="-376"/>
      <point x="786" y="-414"/>
    </contour>
    <contour>
      <point x="1014" y="0" type="line"/>
      <point x="1168" y="0" type="line"/>
      <point x="1168" y="607" type="line" smooth="yes"/>
      <point x="1168" y="771"/>
      <point x="1058" y="896"/>
      <point x="888" y="896" type="curve" smooth="yes"/>
      <point x="771" y="896"/>
      <point x="702" y="834"/>
      <point x="625" y="725" type="curve"/>
      <point x="611" y="589" type="line"/>
      <point x="714" y="716"/>
      <point x="790" y="763"/>
      <point x="879" y="763" type="curve" smooth="yes"/>
      <point x="965" y="763"/>
      <point x="1014" y="709"/>
      <point x="1014" y="588" type="curve" smooth="yes"/>
    </contour>
  </outline>
</glyph>
<glyph name="Shhadescender-cy" format="2">
  <advance width="1200"/>
  <unicode hex="0526"/>
  <outline>
    <contour>
      <point x="674" y="887" type="curve" smooth="yes"/>
      <point x="492" y="887"/>
      <point x="377" y="819"/>
      <point x="295" y="709" type="curve"/>
      <point x="292" y="551" type="line"/>
      <point x="385" y="687"/>
      <point x="489" y="762"/>
      <point x="652" y="762" type="curve" smooth="yes"/>
      <point x="856" y="762"/>
      <point x="947" y="651"/>
      <point x="947" y="472" type="curve" smooth="yes"/>
      <point x="947" y="0" type="line"/>
      <point x="1075" y="0" type="line"/>
      <point x="1075" y="474" type="line" smooth="yes"/>
      <point x="1075" y="729"/>
      <point x="925" y="887"/>
    </contour>
    <contour>
      <point x="313" y="1374" type="line"/>
      <point x="186" y="1374" type="line"/>
      <point x="186" y="0" type="line"/>
      <point x="313" y="0" type="line"/>
    </contour>
    <component base="descStraight-cy.case" xOffset="510"/>
  </outline>
</glyph>
<glyph name="eldescender-cy" format="2">
  <advance width="1200"/>
  <unicode hex="052F"/>
  <outline>
    <contour>
      <point x="955" y="1050" type="line"/>
      <point x="313" y="1050" type="line"/>
      <point x="279" y="609" type="line" smooth="yes"/>
      <point x="245" y="174"/>
      <point x="183" y="122"/>
      <point x="87" y="64" type="curve"/>
      <point x="140" y="-17" type="line"/>
      <point x="306" y="82"/>
      <point x="355" y="153"/>
      <point x="398" y="616" type="curve" smooth="yes"/>
      <point x="428" y="938" type="line"/>
      <point x="831" y="938" type="line"/>
      <point x="831" y="0" type="line"/>
      <point x="955" y="0" type="line"/>
    </contour>
    <component base="descStraight-cy" xOffset="455"/>
  </outline>
</glyph>
<glyph name="psilivaria" format="2">
  <advance width="1200"/>
  <unicode hex="1FCD"/>
  <anchor x="619" y="1050" name="_top"/>
  <anchor x="902" y="1565" name="_topleft"/>
  <anchor x="434" y="1572" name="top"/>
  <outline>
    <contour>
      <point x="740" y="1559" type="line"/>
      <point x="619" y="1529" type="line"/>
      <point x="744" y="1145" type="line"/>
      <point x="839" y="1174" type="line"/>
    </contour>
    <component base="psili" xOffset="-152" yOffset="-18"/>
  </outline>
</glyph>
<glyph name="dasiavaria" format="2">
  <advance width="1200"/>
  <unicode hex="1FDD"/>
  <anchor x="654" y="1050" name="_top"/>
  <anchor x="902" y="1565" name="_topleft"/>
  <anchor x="658" y="1583" name="top"/>
  <outline>
    <contour>
      <point x="740" y="1559" type="line"/>
      <point x="619" y="1529" type="line"/>
      <point x="744" y="1145" type="line"/>
      <point x="839" y="1174" type="line"/>
    </contour>
    <component base="dasia" xOffset="-149" yOffset="-18"/>
  </outline>
</glyph>
<glyph name="quoteleft" format="2">
  <advance width="1200"/>
  <unicode hex="2018"/>
  <outline>
    <contour>
      <point x="723" y="1109" type="curve" smooth="yes"/>
      <point x="723" y="1149"/>
      <point x="705" y="1187"/>
      <point x="677" y="1207" type="curve"/>
      <point x="757" y="1578" type="line"/>
      <point x="641" y="1578" type="line"/>
      <point x="470" y="1219" type="line" smooth="yes"/>
      <point x="445" y="1163"/>
      <point x="443" y="1136"/>
      <point x="443" y="1109" type="curve" smooth="yes"/>
      <point x="443" y="1033"/>
      <point x="506" y="974"/>
      <point x="582" y="974" type="curve" smooth="yes"/>
      <point x="659" y="974"/>
      <point x="723" y="1033"/>
    </contour>
  </outline>
</glyph>
<glyph name="dagger" format="2">
  <advance width="1200"/>
  <unicode hex="2020"/>
  <outline>
    <contour>
      <point x="661" y="1352" type="line"/>
      <point x="539" y="1352" type="line"/>
      <point x="539" y="1032" type="line"/>
      <point x="198" y="1032" type="line"/>
      <point x="198" y="924" type="line"/>
      <point x="539" y="924" type="line"/>
      <point x="539" y="0" type="line"/>
      <point x="661" y="0" type="line"/>
      <point x="661" y="924" type="line"/>
      <point x="1002" y="924" type="line"/>
      <point x="1002" y="1032" type="line"/>
      <point x="661" y="1032" type="line"/>
    </contour>
  </outline>
</glyph>
<glyph name="tironiansignet" format="2">
  <advance width="1200"/>
  <unicode hex="204A"/>
  <outline>
    <contour>
      <point x="469" y="-401" type="line"/>
      <point x="977" y="941" type="line"/>
      <point x="977" y="1050" type="line"/>
      <point x="209" y="1050" type="line"/>
      <point x="209" y="934" type="line"/>
      <point x="846" y="934" type="line"/>
      <point x="361" y="-362" type="line"/>
    </contour>
  </outline>
</glyph>
<glyph name="drachma" format="2">
  <advance width="1200"/>
  <unicode hex="20AF"/>
  <outline>
    <contour>
      <point x="264" y="598" type="line"/>
      <point x="933" y="598" type="line"/>
      <point x="652" y="1374" type="line"/>
      <point x="546" y="1374" type="line"/>
    </contour>
    <contour>
      <point x="351" y="-386" type="line"/>
      <point x="457" y="-376" type="line"/>
      <point x="457" y="191" type="line" smooth="yes"/>
      <point x="457" y="365"/>
      <point x="483" y="452"/>
      <point x="599" y="452" type="curve" smooth="yes"/>
      <point x="694" y="452"/>
      <point x="746" y="378"/>
      <point x="746" y="196" type="curve" smooth="yes"/>
      <point x="746" y="30"/>
      <point x="711" y="-55"/>
      <point x="593" y="-55" type="curve" smooth="yes"/>
      <point x="514" y="-55"/>
      <point x="448" y="-13"/>
      <point x="417" y="56" type="curve"/>
      <point x="414" y="-44" type="line"/>
      <point x="457" y="-111"/>
      <point x="525" y="-139"/>
      <point x="607" y="-139" type="curve" smooth="yes"/>
      <point x="784" y="-139"/>
      <point x="863" y="18"/>
      <point x="863" y="195" type="curve" smooth="yes"/>
      <point x="863" y="410"/>
      <point x="779" y="534"/>
      <point x="604" y="534" type="curve" smooth="yes"/>
      <point x="446" y="534"/>
      <point x="351" y="421"/>
      <point x="351" y="202" type="curve" smooth="yes"/>
    </contour>
    <contour>
      <point x="397" y="678" type="line"/>
      <point x="596" y="1275" type="line"/>
      <point x="792" y="678" type="line"/>
    </contour>
  </outline>
</glyph>
<glyph name="arrowup" format="2">
  <advance width="1200"/>
  <unicode hex="2191"/>
  <outline>
    <contour>
      <point x="600" y="1321" type="line"/>
      <point x="-22" y="774" type="line"/>
      <point x="55" y="685" type="line"/>
      <point x="429" y="1026" type="line" smooth="yes"/>
      <point x="464" y="1052"/>
      <point x="503" y="1088"/>
      <point x="536" y="1148" type="curve"/>
      <point x="536" y="0" type="line"/>
      <point x="664" y="0" type="line"/>
      <point x="664" y="1147" type="line"/>
      <point x="694" y="1090"/>
      <point x="735" y="1053"/>
      <point x="770" y="1027" type="curve" smooth="yes"/>
      <point x="1145" y="685" type="line"/>
      <point x="1222" y="774" type="line"/>
    </contour>
  </outline>
</glyph>
<glyph name="summation" format="2">
  <advance width="1200"/>
  <unicode hex="2211"/>
  <outline>
    <contour>
      <point x="976" y="1374" type="line"/>
      <point x="217" y="1374" type="line"/>
      <point x="217" y="1251" type="line"/>
      <point x="683" y="686" type="line"/>
      <point x="217" y="123" type="line"/>
      <point x="217" y="0" type="line"/>
      <point x="976" y="0" type="line"/>
      <point x="976" y="119" type="line"/>
      <point x="371" y="119" type="line"/>
      <point x="785" y="631" type="line"/>
      <point x="785" y="750" type="line"/>
      <point x="371" y="1256" type="line"/>
      <point x="976" y="1256" type="line"/>
    </contour>
  </outline>
</glyph>
<glyph name="radical" format="2">
  <advance width="1200"/>
  <unicode hex="221A"/>
  <outline>
    <contour>
      <point x="1372" y="1728" type="line"/>
      <point x="926" y="1728" type="line"/>
      <point x="489" y="149" type="line"/>
      <point x="193" y="949" type="line"/>
      <point x="90" y="910" type="line"/>
      <point x="423" y="0" type="line"/>
      <point x="562" y="0" type="line"/>
      <point x="1009" y="1613" type="line"/>
      <point x="1372" y="1613" type="line"/>
    </contour>
  </outline>
</glyph>
<glyph name="approxequal" format="2">
  <advance width="1200"/>
  <unicode hex="2248"/>
  <outline>
    <contour>
      <point x="455" y="551" type="curve" smooth="yes"/>
      <point x="322" y="551"/>
      <point x="244" y="461"/>
      <point x="211" y="397" type="curve"/>
      <point x="309" y="346" type="line"/>
      <point x="341" y="401"/>
      <point x="381" y="447"/>
      <point x="444" y="447" type="curve" smooth="yes"/>
      <point x="522" y="447"/>
      <point x="594" y="336"/>
      <point x="745" y="336" type="curve" smooth="yes"/>
      <point x="881" y="336"/>
      <point x="956" y="425"/>
      <point x="989" y="488" type="curve"/>
      <point x="891" y="539" type="line"/>
      <point x="859" y="485"/>
      <point x="819" y="439"/>
      <point x="756" y="439" type="curve" smooth="yes"/>
      <point x="678" y="439"/>
      <point x="606" y="551"/>
    </contour>
    <contour>
      <point x="455" y="927" type="curve" smooth="yes"/>
      <point x="322" y="927"/>
      <point x="244" y="836"/>
      <point x="211" y="773" type="curve"/>
      <point x="309" y="721" type="line"/>
      <point x="341" y="775"/>
      <point x="381" y="821"/>
      <point x="444" y="821" type="curve" smooth="yes"/>
      <point x="522" y="821"/>
      <point x="594" y="711"/>
      <point x="745" y="711" type="curve" smooth="yes"/>
      <point x="881" y="711"/>
      <point x="956" y="799"/>
      <point x="989" y="863" type="curve"/>
      <point x="891" y="914" type="line"/>
      <point x="859" y="859"/>
      <point x="819" y="814"/>
      <point x="756" y="814" type="curve" smooth="yes"/>
      <point x="678" y="814"/>
      <point x="606" y="927"/>
    </contour>
  </outline>
</glyph>
<glyph name="notequal" format="2">
  <advance width="1200"/>
  <unicode hex="2260"/>
  <outline>
    <contour>
      <point x="877" y="1177" type="line"/>
      <point x="692" y="863" type="line"/>
      <point x="245" y="111" type="line"/>
      <point x="320" y="69" type="line"/>
      <point x="951" y="1139" type="line"/>
    </contour>
    <component base="equal"/>
  </outline>
</glyph>
<glyph name="boxLightTripleDashVertical" format="2">
  <advance width="1200"/>
  <unicode hex="2506"/>
  <outline>
    <contour>
      <point x="520" y="1025" type="line"/>
      <point x="520" y="310" type="line"/>
      <point x="680" y="310" type="line"/>
      <point x="680" y="1025" type="line"/>
    </contour>
    <contour>
      <point x="520" y="150" type="line"/>
      <point x="520" y="-565" type="line"/>
      <point x="680" y="-565" type="line"/>
      <point x="680" y="150" type="line"/>
    </contour>
    <contour>
      <point x="520" y="1900" type="line"/>
      <point x="520" y="1185" type="line"/>
      <point x="680" y="1185" type="line"/>
      <point x="680" y="1900" type="line"/>
    </contour>
  </outline>
</glyph>
<glyph name="boxVerticalHeavyAndRightLight" format="2">
  <advance width="1200"/>
  <unicode hex="2520"/>
  <outline>
    <contour>
      <point x="840" y="2000" type="line"/>
      <point x="360" y="2000" type="line"/>
      <point x="360" y="-1000" type="line"/>
      <point x="840" y="-1000" type="line"/>
      <point x="840" y="620" type="line"/>
      <point x="1210" y="620" type="line"/>
      <point x="1210" y="780" type="line"/>
      <point x="840" y="780" type="line"/>
    </contour>
  </outline>
</glyph>
<glyph name="uni256E" format="2">
  <advance width="1200"/>
  <unicode hex="256E"/>
  <note>
uni256E
</note>
  <outline>
    <contour>
      <point x="140" y="780" type="curve" smooth="yes"/>
      <point x="-10" y="780" type="line"/>
      <point x="-10" y="620" type="line"/>
      <point x="140" y="620" type="line" smooth="yes"/>
      <point x="348" y="620"/>
      <point x="520" y="448"/>
      <point x="520" y="240" type="curve" smooth="yes"/>
      <point x="520" y="-1000" type="line"/>
      <point x="680" y="-1000" type="line"/>
      <point x="680" y="240" type="line" smooth="yes"/>
      <point x="680" y="538"/>
      <point x="438" y="780"/>
    </contour>
  </outline>
</glyph>
<glyph name="shade" format="2">
  <advance width="1200"/>
  <unicode hex="2592"/>
  <outline>
    <contour>
      <point x="1100" y="2000" type="line"/>
      <point x="998" y="2000" type="line"/>
      <point x="998" y="1852" type="line"/>
      <point x="900" y="1852" type="line"/>
      <point x="900" y="2000" type="line"/>
      <point x="798" y="2000" type="line"/>
      <point x="798" y="1852" type="line"/>
      <point x="700" y="1852" type="line"/>
      <point x="700" y="2000" type="line"/>
      <point x="598" y="2000" type="line"/>
      <point x="598" y="1852" type="line"/>
      <point x="500" y="1852" type="line"/>
      <point x="500" y="2000" type="line"/>
      <point x="398" y="2000" type="line"/>
      <point x="398" y="1852" type="line"/>
      <point x="300" y="1852" type="line"/>
      <point x="300" y="2000" type="line"/>
      <point x="198" y="2000" type="line"/>
      <point x="198" y="1852" type="line"/>
      <point x="100" y="1852" type="line"/>
      <point x="100" y="2000" type="line"/>
      <point x="0" y="2000" type="line"/>
      <point x="0" y="1850" type="line"/>
      <point x="98" y="1850" type="line"/>
      <point x="98" y="1702" type="line"/>
      <point x="0" y="1702" type="line"/>
      <point x="0" y="1550" type="line"/>
      <point x="98" y="1550" type="line"/>
      <point x="98" y="1402" type="line"/>
      <point x="0" y="1402" type="line"/>
      <point x="0" y="1250" type="line"/>
      <point x="98" y="1250" type="line"/>
      <point x="98" y="1102" type="line"/>
      <point x="0" y="1102" type="line"/>
      <point x="0" y="950" type="line"/>
      <point x="98" y="950" type="line"/>
      <point x="98" y="802" type="line"/>
      <point x="0" y="802" type="line"/>
      <point x="0" y="650" type="line"/>
      <point x="98" y="650" type="line"/>
      <point x="98" y="502" type="line"/>
      <point x="0" y="502" type="line"/>
      <point x="0" y="350" type="line"/>
      <point x="98" y="350" type="line"/>
      <point x="98" y="202" type="line"/>
      <point x="0" y="202" type="line"/>
      <point x="0" y="50" type="line"/>
      <point x="98" y="50" type="line"/>
      <point x="98" y="-98" type="line"/>
      <point x="0" y="-98" type="line"/>
      <point x="0" y="-250" type="line"/>
      <point x="98" y="-250" type="line"/>
      <point x="98" y="-398" type="line"/>
      <point x="0" y="-398" type="line"/>
      <point x="0" y="-550" type="line"/>
      <point x="98" y="-550" type="line"/>
      <point x="98" y="-698" type="line"/>
      <point x="0" y="-698" type="line"/>
      <point x="0" y="-850" type="line"/>
      <point x="98" y="-850" type="line"/>
      <point x="98" y="-1000" type="line"/>
      <point x="200" y="-1000" type="line"/>
      <point x="200" y="-850" type="line"/>
      <point x="298" y="-850" type="line"/>
      <point x="298" y="-1000" type="line"/>
      <point x="400" y="-1000" type="line"/>
      <point x="400" y="-850" type="line"/>
      <point x="498" y="-850" type="line"/>
      <point x="498" y="-1000" type="line"/>
      <point x="600" y="-1000" type="line"/>
      <point x="600" y="-850" type="line"/>
      <point x="698" y="-850" type="line"/>
      <point x="698" y="-1000" type="line"/>
      <point x="800" y="-1000" type="line"/>
      <point x="800" y="-850" type="line"/>
      <point x="898" y="-850" type="line"/>
      <point x="898" y="-1000" type="line"/>
      <point x="1000" y="-1000" type="line"/>
      <point x="1000" y="-850" type="line"/>
      <point x="1098" y="-850" type="line"/>
      <point x="1098" y="-1000" type="line"/>
      <point x="1200" y="-1000" type="line"/>
      <point x="1200" y="-848" type="line"/>
      <point x="1100" y="-848" type="line"/>
      <point x="1100" y="-700" type="line"/>
      <point x="1200" y="-700" type="line"/>
      <point x="1200" y="-548" type="line"/>
      <point x="1100" y="-548" type="line"/>
      <point x="1100" y="-400" type="line"/>
      <point x="1200" y="-400" type="line"/>
      <point x="1200" y="-248" type="line"/>
      <point x="1100" y="-248" type="line"/>
      <point x="1100" y="-100" type="line"/>
      <point x="1200" y="-100" type="line"/>
      <point x="1200" y="52" type="line"/>
      <point x="1100" y="52" type="line"/>
      <point x="1100" y="200" type="line"/>
      <point x="1200" y="200" type="line"/>
      <point x="1200" y="352" type="line"/>
      <point x="1100" y="352" type="line"/>
      <point x="1100" y="500" type="line"/>
      <point x="1200" y="500" type="line"/>
      <point x="1200" y="652" type="line"/>
      <point x="1100" y="652" type="line"/>
      <point x="1100" y="800" type="line"/>
      <point x="1200" y="800" type="line"/>
      <point x="1200" y="952" type="line"/>
      <point x="1100" y="952" type="line"/>
      <point x="1100" y="1100" type="line"/>
      <point x="1200" y="1100" type="line"/>
      <point x="1200" y="1252" type="line"/>
      <point x="1100" y="1252" type="line"/>
      <point x="1100" y="1400" type="line"/>
      <point x="1200" y="1400" type="line"/>
      <point x="1200" y="1552" type="line"/>
      <point x="1100" y="1552" type="line"/>
      <point x="1100" y="1700" type="line"/>
      <point x="1200" y="1700" type="line"/>
      <point x="1200" y="1852" type="line"/>
      <point x="1100" y="1852" type="line"/>
    </contour>
    <contour>
      <point x="198" y="-700" type="line"/>
      <point x="198" y="-848" type="line"/>
      <point x="100" y="-848" type="line"/>
      <point x="100" y="-700" type="line"/>
    </contour>
    <contour>
      <point x="398" y="-698" type="line"/>
      <point x="398" y="-848" type="line"/>
      <point x="300" y="-848" type="line"/>
      <point x="300" y="-700" type="line"/>
    </contour>
    <contour>
      <point x="298" y="-550" type="line"/>
      <point x="298" y="-698" type="line"/>
      <point x="200" y="-698" type="line"/>
      <point x="200" y="-550" type="line"/>
    </contour>
    <contour>
      <point x="198" y="-400" type="line"/>
      <point x="198" y="-548" type="line"/>
      <point x="100" y="-548" type="line"/>
      <point x="100" y="-400" type="line"/>
    </contour>
    <contour>
      <point x="598" y="-700" type="line"/>
      <point x="598" y="-848" type="line"/>
      <point x="500" y="-848" type="line"/>
      <point x="500" y="-700" type="line"/>
    </contour>
    <contour>
      <point x="498" y="-550" type="line"/>
      <point x="498" y="-698" type="line"/>
      <point x="400" y="-698" type="line"/>
      <point x="400" y="-550" type="line"/>
    </contour>
    <contour>
      <point x="398" y="-398" type="line"/>
      <point x="398" y="-548" type="line"/>
      <point x="300" y="-548" type="line"/>
      <point x="300" y="-400" type="line"/>
    </contour>
    <contour>
      <point x="298" y="-250" type="line"/>
      <point x="298" y="-398" type="line"/>
      <point x="200" y="-398" type="line"/>
      <point x="200" y="-250" type="line"/>
    </contour>
    <contour>
      <point x="198" y="-100" type="line"/>
      <point x="198" y="-248" type="line"/>
      <point x="100" y="-248" type="line"/>
      <point x="100" y="-100" type="line"/>
    </contour>
    <contour>
      <point x="798" y="-698" type="line"/>
      <point x="798" y="-848" type="line"/>
      <point x="700" y="-848" type="line"/>
      <point x="700" y="-700" type="line"/>
    </contour>
    <contour>
      <point x="700" y="-550" type="line"/>
      <point x="700" y="-698" type="line"/>
      <point x="600" y="-698" type="line"/>
      <point x="600" y="-550" type="line"/>
    </contour>
    <contour>
      <point x="598" y="-400" type="line"/>
      <point x="598" y="-548" type="line"/>
      <point x="500" y="-548" type="line"/>
      <point x="500" y="-400" type="line"/>
    </contour>
    <contour>
      <point x="498" y="-250" type="line"/>
      <point x="498" y="-398" type="line"/>
      <point x="400" y="-398" type="line"/>
      <point x="400" y="-250" type="line"/>
    </contour>
    <contour>
      <point x="998" y="-700" type="line"/>
      <point x="998" y="-848" type="line"/>
      <point x="900" y="-848" type="line"/>
      <point x="900" y="-700" type="line"/>
    </contour>
    <contour>
      <point x="400" y="-100" type="line"/>
      <point x="400" y="-248" type="line"/>
      <point x="300" y="-248" type="line"/>
      <point x="300" y="-100" type="line"/>
    </contour>
    <contour>
      <point x="898" y="-550" type="line"/>
      <point x="898" y="-698" type="line"/>
      <point x="800" y="-698" type="line"/>
      <point x="800" y="-550" type="line"/>
    </contour>
    <contour>
      <point x="298" y="50" type="line"/>
      <point x="298" y="-98" type="line"/>
      <point x="200" y="-98" type="line"/>
      <point x="200" y="50" type="line"/>
    </contour>
    <contour>
      <point x="198" y="200" type="line"/>
      <point x="198" y="52" type="line"/>
      <point x="100" y="52" type="line"/>
      <point x="100" y="200" type="line"/>
    </contour>
    <contour>
      <point x="798" y="-398" type="line"/>
      <point x="798" y="-548" type="line"/>
      <point x="700" y="-548" type="line"/>
      <point x="700" y="-400" type="line"/>
    </contour>
    <contour>
      <point x="698" y="-250" type="line"/>
      <point x="698" y="-398" type="line"/>
      <point x="600" y="-398" type="line"/>
      <point x="600" y="-250" type="line"/>
    </contour>
    <contour>
      <point x="598" y="-100" type="line"/>
      <point x="598" y="-248" type="line"/>
      <point x="500" y="-248" type="line"/>
      <point x="500" y="-100" type="line"/>
    </contour>
    <contour>
      <point x="498" y="50" type="line"/>
      <point x="498" y="-98" type="line"/>
      <point x="400" y="-98" type="line"/>
      <point x="400" y="50" type="line"/>
    </contour>
    <contour>
      <point x="1098" y="-550" type="line"/>
      <point x="1098" y="-698" type="line"/>
      <point x="1000" y="-698" type="line"/>
      <point x="1000" y="-550" type="line"/>
    </contour>
    <contour>
      <point x="398" y="200" type="line"/>
      <point x="398" y="52" type="line"/>
      <point x="300" y="52" type="line"/>
      <point x="300" y="200" type="line"/>
    </contour>
    <contour>
      <point x="998" y="-400" type="line"/>
      <point x="998" y="-548" type="line"/>
      <point x="900" y="-548" type="line"/>
      <point x="900" y="-400" type="line"/>
    </contour>
    <contour>
      <point x="298" y="350" type="line"/>
      <point x="298" y="202" type="line"/>
      <point x="200" y="202" type="line"/>
      <point x="200" y="350" type="line"/>
    </contour>
    <contour>
      <point x="898" y="-248" type="line"/>
      <point x="898" y="-398" type="line"/>
      <point x="800" y="-398" type="line"/>
      <point x="800" y="-250" type="line"/>
    </contour>
    <contour>
      <point x="798" y="-100" type="line"/>
      <point x="798" y="-248" type="line"/>
      <point x="700" y="-248" type="line"/>
      <point x="700" y="-100" type="line"/>
    </contour>
    <contour>
      <point x="198" y="500" type="line"/>
      <point x="198" y="352" type="line"/>
      <point x="100" y="352" type="line"/>
      <point x="100" y="500" type="line"/>
    </contour>
    <contour>
      <point x="698" y="50" type="line"/>
      <point x="698" y="-98" type="line"/>
      <point x="600" y="-98" type="line"/>
      <point x="600" y="50" type="line"/>
    </contour>
    <contour>
      <point x="598" y="200" type="line"/>
      <point x="598" y="52" type="line"/>
      <point x="500" y="52" type="line"/>
      <point x="500" y="200" type="line"/>
    </contour>
    <contour>
      <point x="1098" y="-250" type="line"/>
      <point x="1098" y="-398" type="line"/>
      <point x="1000" y="-398" type="line"/>
      <point x="1000" y="-250" type="line"/>
    </contour>
    <contour>
      <point x="498" y="350" type="line"/>
      <point x="498" y="202" type="line"/>
      <point x="400" y="202" type="line"/>
      <point x="400" y="350" type="line"/>
    </contour>
    <contour>
      <point x="998" y="-100" type="line"/>
      <point x="998" y="-248" type="line"/>
      <point x="900" y="-248" type="line"/>
      <point x="900" y="-100" type="line"/>
    </contour>
    <contour>
      <point x="398" y="500" type="line"/>
      <point x="398" y="352" type="line"/>
      <point x="300" y="352" type="line"/>
      <point x="300" y="500" type="line"/>
    </contour>
    <contour>
      <point x="298" y="650" type="line"/>
      <point x="298" y="502" type="line"/>
      <point x="200" y="502" type="line"/>
      <point x="200" y="650" type="line"/>
    </contour>
    <contour>
      <point x="898" y="50" type="line"/>
      <point x="898" y="-98" type="line"/>
      <point x="800" y="-98" type="line"/>
      <point x="800" y="50" type="line"/>
    </contour>
    <contour>
      <point x="198" y="800" type="line"/>
      <point x="198" y="652" type="line"/>
      <point x="100" y="652" type="line"/>
      <point x="100" y="800" type="line"/>
    </contour>
    <contour>
      <point x="798" y="200" type="line"/>
      <point x="798" y="52" type="line"/>
      <point x="700" y="52" type="line"/>
      <point x="700" y="200" type="line"/>
    </contour>
    <contour>
      <point x="698" y="350" type="line"/>
      <point x="698" y="202" type="line"/>
      <point x="600" y="202" type="line"/>
      <point x="600" y="350" type="line"/>
    </contour>
    <contour>
      <point x="598" y="500" type="line"/>
      <point x="598" y="352" type="line"/>
      <point x="500" y="352" type="line"/>
      <point x="500" y="500" type="line"/>
    </contour>
    <contour>
      <point x="1098" y="50" type="line"/>
      <point x="1098" y="-98" type="line"/>
      <point x="1000" y="-98" type="line"/>
      <point x="1000" y="50" type="line"/>
    </contour>
    <contour>
      <point x="498" y="650" type="line"/>
      <point x="498" y="502" type="line"/>
      <point x="400" y="502" type="line"/>
      <point x="400" y="650" type="line"/>
    </contour>
    <contour>
      <point x="998" y="200" type="line"/>
      <point x="998" y="52" type="line"/>
      <point x="900" y="52" type="line"/>
      <point x="900" y="200" type="line"/>
    </contour>
    <contour>
      <point x="398" y="800" type="line"/>
      <point x="398" y="652" type="line"/>
      <point x="300" y="652" type="line"/>
      <point x="300" y="800" type="line"/>
    </contour>
    <contour>
      <point x="898" y="350" type="line"/>
      <point x="898" y="202" type="line"/>
      <point x="800" y="202" type="line"/>
      <point x="800" y="350" type="line"/>
    </contour>
    <contour>
      <point x="298" y="950" type="line"/>
      <point x="298" y="802" type="line"/>
      <point x="200" y="802" type="line"/>
      <point x="200" y="950" type="line"/>
    </contour>
    <contour>
      <point x="198" y="1100" type="line"/>
      <point x="198" y="952" type="line"/>
      <point x="100" y="952" type="line"/>
      <point x="100" y="1100" type="line"/>
    </contour>
    <contour>
      <point x="798" y="500" type="line"/>
      <point x="798" y="352" type="line"/>
      <point x="700" y="352" type="line"/>
      <point x="700" y="500" type="line"/>
    </contour>
    <contour>
      <point x="698" y="650" type="line"/>
      <point x="698" y="502" type="line"/>
      <point x="600" y="502" type="line"/>
      <point x="600" y="650" type="line"/>
    </contour>
    <contour>
      <point x="598" y="800" type="line"/>
      <point x="598" y="652" type="line"/>
      <point x="500" y="652" type="line"/>
      <point x="500" y="800" type="line"/>
    </contour>
    <contour>
      <point x="498" y="950" type="line"/>
      <point x="498" y="802" type="line"/>
      <point x="400" y="802" type="line"/>
      <point x="400" y="950" type="line"/>
    </contour>
    <contour>
      <point x="1098" y="350" type="line"/>
      <point x="1098" y="202" type="line"/>
      <point x="1000" y="202" type="line"/>
      <point x="1000" y="350" type="line"/>
    </contour>
    <contour>
      <point x="998" y="500" type="line"/>
      <point x="998" y="352" type="line"/>
      <point x="900" y="352" type="line"/>
      <point x="900" y="500" type="line"/>
    </contour>
    <contour>
      <point x="398" y="1102" type="line"/>
      <point x="398" y="952" type="line"/>
      <point x="300" y="952" type="line"/>
      <point x="300" y="1100" type="line"/>
    </contour>
    <contour>
      <point x="298" y="1250" type="line"/>
      <point x="298" y="1102" type="line"/>
      <point x="200" y="1102" type="line"/>
      <point x="200" y="1250" type="line"/>
    </contour>
    <contour>
      <point x="898" y="650" type="line"/>
      <point x="898" y="502" type="line"/>
      <point x="800" y="502" type="line"/>
      <point x="800" y="650" type="line"/>
    </contour>
    <contour>
      <point x="798" y="800" type="line"/>
      <point x="798" y="652" type="line"/>
      <point x="700" y="652" type="line"/>
      <point x="700" y="800" type="line"/>
    </contour>
    <contour>
      <point x="198" y="1402" type="line"/>
      <point x="198" y="1252" type="line"/>
      <point x="100" y="1252" type="line"/>
      <point x="100" y="1400" type="line"/>
    </contour>
    <contour>
      <point x="698" y="950" type="line"/>
      <point x="698" y="802" type="line"/>
      <point x="600" y="802" type="line"/>
      <point x="600" y="950" type="line"/>
    </contour>
    <contour>
      <point x="598" y="1100" type="line"/>
      <point x="598" y="952" type="line"/>
      <point x="500" y="952" type="line"/>
      <point x="500" y="1100" type="line"/>
    </contour>
    <contour>
      <point x="1098" y="650" type="line"/>
      <point x="1098" y="502" type="line"/>
      <point x="1000" y="502" type="line"/>
      <point x="1000" y="650" type="line"/>
    </contour>
    <contour>
      <point x="498" y="1250" type="line"/>
      <point x="498" y="1102" type="line"/>
      <point x="400" y="1102" type="line"/>
      <point x="400" y="1250" type="line"/>
    </contour>
    <contour>
      <point x="998" y="800" type="line"/>
      <point x="998" y="652" type="line"/>
      <point x="900" y="652" type="line"/>
      <point x="900" y="800" type="line"/>
    </contour>
    <contour>
      <point x="398" y="1402" type="line"/>
      <point x="398" y="1252" type="line"/>
      <point x="300" y="1252" type="line"/>
      <point x="300" y="1400" type="line"/>
    </contour>
    <contour>
      <point x="898" y="950" type="line"/>
      <point x="898" y="802" type="line"/>
      <point x="800" y="802" type="line"/>
      <point x="800" y="950" type="line"/>
    </contour>
    <contour>
      <point x="300" y="1550" type="line"/>
      <point x="300" y="1402" type="line"/>
      <point x="200" y="1402" type="line"/>
      <point x="200" y="1550" type="line"/>
    </contour>
    <contour>
      <point x="198" y="1700" type="line"/>
      <point x="198" y="1552" type="line"/>
      <point x="100" y="1552" type="line"/>
      <point x="100" y="1700" type="line"/>
    </contour>
    <contour>
      <point x="798" y="1100" type="line"/>
      <point x="798" y="952" type="line"/>
      <point x="700" y="952" type="line"/>
      <point x="700" y="1100" type="line"/>
    </contour>
    <contour>
      <point x="698" y="1250" type="line"/>
      <point x="698" y="1102" type="line"/>
      <point x="600" y="1102" type="line"/>
      <point x="600" y="1250" type="line"/>
    </contour>
    <contour>
      <point x="600" y="1400" type="line"/>
      <point x="600" y="1252" type="line"/>
      <point x="500" y="1252" type="line"/>
      <point x="500" y="1400" type="line"/>
    </contour>
    <contour>
      <point x="1098" y="950" type="line"/>
      <point x="1098" y="802" type="line"/>
      <point x="1000" y="802" type="line"/>
      <point x="1000" y="950" type="line"/>
    </contour>
    <contour>
      <point x="498" y="1550" type="line"/>
      <point x="498" y="1402" type="line"/>
      <point x="400" y="1402" type="line"/>
      <point x="400" y="1550" type="line"/>
    </contour>
    <contour>
      <point x="398" y="1700" type="line"/>
      <point x="398" y="1552" type="line"/>
      <point x="300" y="1552" type="line"/>
      <point x="300" y="1700" type="line"/>
    </contour>
    <contour>
      <point x="998" y="1100" type="line"/>
      <point x="998" y="952" type="line"/>
      <point x="900" y="952" type="line"/>
      <point x="900" y="1100" type="line"/>
    </contour>
    <contour>
      <point x="298" y="1850" type="line"/>
      <point x="298" y="1702" type="line"/>
      <point x="200" y="1702" type="line"/>
      <point x="200" y="1850" type="line"/>
    </contour>
    <contour>
      <point x="898" y="1250" type="line"/>
      <point x="898" y="1102" type="line"/>
      <point x="800" y="1102" type="line"/>
      <point x="800" y="1250" type="line"/>
    </contour>
    <contour>
      <point x="798" y="1400" type="line"/>
      <point x="798" y="1252" type="line"/>
      <point x="700" y="1252" type="line"/>
      <point x="700" y="1400" type="line"/>
    </contour>
    <contour>
      <point x="698" y="1552" type="line"/>
      <point x="698" y="1402" type="line"/>
      <point x="600" y="1402" type="line"/>
      <point x="600" y="1550" type="line"/>
    </contour>
    <contour>
      <point x="598" y="1702" type="line"/>
      <point x="598" y="1552" type="line"/>
      <point x="500" y="1552" type="line"/>
      <point x="500" y="1700" type="line"/>
    </contour>
    <contour>
      <point x="1098" y="1250" type="line"/>
      <point x="1098" y="1102" type="line"/>
      <point x="1000" y="1102" type="line"/>
      <point x="1000" y="1250" type="line"/>
    </contour>
    <contour>
      <point x="498" y="1850" type="line"/>
      <point x="498" y="1702" type="line"/>
      <point x="400" y="1702" type="line"/>
      <point x="400" y="1850" type="line"/>
    </contour>
    <contour>
      <point x="998" y="1400" type="line"/>
      <point x="998" y="1252" type="line"/>
      <point x="900" y="1252" type="line"/>
      <point x="900" y="1400" type="line"/>
    </contour>
    <contour>
      <point x="898" y="1550" type="line"/>
      <point x="898" y="1402" type="line"/>
      <point x="800" y="1402" type="line"/>
      <point x="800" y="1550" type="line"/>
    </contour>
    <contour>
      <point x="798" y="1700" type="line"/>
      <point x="798" y="1552" type="line"/>
      <point x="700" y="1552" type="line"/>
      <point x="700" y="1700" type="line"/>
    </contour>
    <contour>
      <point x="700" y="1850" type="line"/>
      <point x="700" y="1702" type="line"/>
      <point x="600" y="1702" type="line"/>
      <point x="600" y="1850" type="line"/>
    </contour>
    <contour>
      <point x="1098" y="1550" type="line"/>
      <point x="1098" y="1402" type="line"/>
      <point x="1000" y="1402" type="line"/>
      <point x="1000" y="1550" type="line"/>
    </contour>
    <contour>
      <point x="998" y="1700" type="line"/>
      <point x="998" y="1552" type="line"/>
      <point x="900" y="1552" type="line"/>
      <point x="900" y="1700" type="line"/>
    </contour>
    <contour>
      <point x="898" y="1850" type="line"/>
      <point x="898" y="1702" type="line"/>
      <point x="800" y="1702" type="line"/>
      <point x="800" y="1850" type="line"/>
    </contour>
    <contour>
      <point x="1098" y="1850" type="line"/>
      <point x="1098" y="1702" type="line"/>
      <point x="1000" y="1702" type="line"/>
      <point x="1000" y="1850" type="line"/>
    </contour>
  </outline>
</glyph>
<glyph name="ballotBox" format="2">
  <advance width="1200"/>
  <unicode hex="2610"/>
  <outline>
    <contour>
      <point x="1122" y="1062" type="line"/>
      <point x="78" y="1062" type="line"/>
      <point x="78" y="18" type="line"/>
      <point x="1122" y="18" type="line"/>
    </contour>
    <contour>
      <point x="984" y="944" type="line"/>
      <point x="984" y="136" type="line"/>
      <point x="216" y="136" type="line"/>
      <point x="216" y="944" type="line"/>
    </contour>
  </outline>
</glyph>
<glyph name="ballotBoxWithCheck" format="2">
  <advance width="1200"/>
  <unicode hex="2611"/>
  <anchor x="638" y="314" name="bottom"/>
  <anchor x="638" y="1700" name="top"/>
  <outline>
    <contour>
      <point x="590" y="467" type="line"/>
      <point x="481" y="779" type="line"/>
      <point x="347" y="779" type="line"/>
      <point x="522" y="314" type="line"/>
      <point x="657" y="314" type="line"/>
      <point x="987" y="1251" type="line"/>
      <point x="849" y="1251" type="line"/>
    </contour>
    <component base="ballotBox"/>
  </outline>
</glyph>
<glyph name="checkmark" format="2">
  <advance width="1200"/>
  <unicode hex="2713"/>
  <anchor x="600" y="0" name="bottom"/>
  <anchor x="600" y="1386" name="top"/>
  <outline>
    <contour>
      <point x="552" y="153" type="line"/>
      <point x="297" y="869" type="line"/>
      <point x="162" y="869" type="line"/>
      <point x="484" y="0" type="line"/>
      <point x="619" y="0" type="line"/>
      <point x="1094" y="1374" type="line"/>
      <point x="956" y="1374" type="line"/>
    </contour>
  </outline>
</glyph>
<glyph name="uniE002" format="2">
  <unicode hex="E002"/>
  <outline>
    <contour>
      <point x="1728" y="616" type="curve" smooth="yes"/>
      <point x="1728" y="602"/>
      <point x="1730" y="588"/>
      <point x="1730" y="588" type="curve"/>
      <point x="1790" y="632" type="line"/>
      <point x="1784" y="640"/>
      <point x="1760" y="656"/>
      <point x="1740" y="656" type="curve"/>
      <point x="1730" y="644"/>
      <point x="1728" y="630"/>
    </contour>
    <contour>
      <point x="2208" y="512" type="line"/>
      <point x="2214" y="436" type="line"/>
      <point x="2214" y="436"/>
      <point x="2254" y="484"/>
      <point x="2254" y="500" type="curve" smooth="yes"/>
      <point x="2254" y="506"/>
      <point x="2248" y="512"/>
      <point x="2240" y="512" type="curve" smooth="yes"/>
    </contour>
    <contour>
      <point x="2044" y="542" type="curve"/>
      <point x="2044" y="542"/>
      <point x="2048" y="494"/>
      <point x="2052" y="472" type="curve"/>
      <point x="2078" y="492"/>
      <point x="2098" y="524"/>
      <point x="2100" y="532" type="curve"/>
      <point x="2074" y="538"/>
      <point x="2044" y="542"/>
    </contour>
    <contour>
      <point x="1964" y="562" type="curve"/>
      <point x="1964" y="554"/>
      <point x="1962" y="498"/>
      <point x="1962" y="498" type="curve"/>
      <point x="1986" y="504"/>
      <point x="2016" y="552"/>
      <point x="2016" y="552" type="curve"/>
      <point x="2016" y="552"/>
      <point x="1990" y="558"/>
    </contour>
    <contour>
      <point x="2126" y="510" type="curve" smooth="yes"/>
      <point x="2126" y="490"/>
      <point x="2128" y="482"/>
      <point x="2132" y="466" type="curve"/>
      <point x="2144" y="470"/>
      <point x="2178" y="504"/>
      <point x="2178" y="516" type="curve"/>
      <point x="2174" y="518"/>
      <point x="2144" y="524"/>
      <point x="2138" y="524" type="curve" smooth="yes"/>
      <point x="2132" y="524"/>
      <point x="2126" y="518"/>
    </contour>
    <contour>
      <point x="1816" y="618" type="curve"/>
      <point x="1812" y="602"/>
      <point x="1812" y="552"/>
      <point x="1812" y="552" type="curve"/>
      <point x="1812" y="552"/>
      <point x="1850" y="588"/>
      <point x="1860" y="598" type="curve"/>
      <point x="1856" y="610"/>
      <point x="1832" y="618"/>
    </contour>
    <contour>
      <point x="1570" y="1164" type="curve"/>
      <point x="1548" y="1170"/>
      <point x="1528" y="1170"/>
      <point x="1510" y="1170" type="curve"/>
      <point x="1512" y="1146"/>
      <point x="1524" y="1124"/>
      <point x="1544" y="1108" type="curve"/>
      <point x="1542" y="1112"/>
      <point x="1540" y="1118"/>
      <point x="1540" y="1122" type="curve" smooth="yes"/>
      <point x="1540" y="1142"/>
      <point x="1554" y="1158"/>
    </contour>
    <contour>
      <point x="1886" y="572" type="curve" smooth="yes"/>
      <point x="1886" y="568"/>
      <point x="1888" y="524"/>
      <point x="1888" y="524" type="curve"/>
      <point x="1888" y="524"/>
      <point x="1920" y="556"/>
      <point x="1932" y="572" type="curve"/>
      <point x="1922" y="580"/>
      <point x="1906" y="586"/>
      <point x="1894" y="588" type="curve"/>
      <point x="1892" y="586"/>
      <point x="1886" y="582"/>
    </contour>
    <contour>
      <point x="1668" y="1084" type="curve"/>
      <point x="1654" y="1106"/>
      <point x="1640" y="1122"/>
      <point x="1626" y="1134" type="curve"/>
      <point x="1626" y="1122" type="line" smooth="yes"/>
      <point x="1626" y="1104"/>
      <point x="1616" y="1090"/>
      <point x="1600" y="1084" type="curve"/>
      <point x="1610" y="1082"/>
      <point x="1620" y="1080"/>
      <point x="1632" y="1080" type="curve" smooth="yes"/>
      <point x="1642" y="1080"/>
      <point x="1654" y="1082"/>
    </contour>
  </outline>
</glyph>
<glyph name="uniE0A1" format="2">
  <advance width="1200"/>
  <unicode hex="E0A1"/>
  <outline>
    <contour>
      <point x="356" y="1616" type="line"/>
      <point x="356" y="816" type="line"/>
      <point x="824" y="816" type="line"/>
      <point x="833" y="915" type="line"/>
      <point x="473" y="915" type="line"/>
      <point x="473" y="1616" type="line"/>
    </contour>
    <contour>
      <point x="460" y="580" type="curve"/>
      <point x="666" y="-100" type="line"/>
      <point x="837" y="-100" type="line"/>
      <point x="837" y="700" type="line"/>
      <point x="723" y="700" type="line"/>
      <point x="723" y="338" type="line" smooth="yes"/>
      <point x="723" y="192"/>
      <point x="737" y="68"/>
      <point x="741" y="20" type="curve"/>
      <point x="535" y="700" type="line"/>
      <point x="365" y="700" type="line"/>
      <point x="365" y="-100" type="line"/>
      <point x="478" y="-100" type="line"/>
      <point x="478" y="264" type="line" smooth="yes"/>
      <point x="478" y="392"/>
      <point x="464" y="534"/>
    </contour>
  </outline>
</glyph>
<glyph name="TseHelper-cy" format="2">
  <advance width="1200"/>
  <anchor x="600" y="0" name="bottom"/>
  <anchor x="1034" y="0" name="bottomright"/>
  <outline>
    <contour>
      <point x="186" y="0" type="line"/>
      <point x="1014" y="0" type="line"/>
      <point x="1014" y="1374" type="line"/>
      <point x="887" y="1374" type="line"/>
      <point x="887" y="111" type="line"/>
      <point x="313" y="111" type="line"/>
      <point x="313" y="1374" type="line"/>
      <point x="186" y="1374" type="line"/>
    </contour>
  </outline>
</glyph>
<glyph name="_part.arrowhead1" format="2">
  <advance width="1200"/>
  <outline>
    <contour>
      <point x="615" y="1216" type="line"/>
      <point x="515" y="1132" type="line"/>
      <point x="844" y="770" type="line" smooth="yes"/>
      <point x="890" y="718"/>
      <point x="890" y="715"/>
      <point x="938" y="684" type="curve"/>
      <point x="940" y="568" type="line"/>
      <point x="901" y="544"/>
      <point x="871" y="511"/>
      <point x="844" y="482" type="curve" smooth="yes"/>
      <point x="515" y="120" type="line"/>
      <point x="615" y="36" type="line"/>
      <point x="1141" y="626" type="line"/>
    </contour>
  </outline>
</glyph>
<glyph name="_part.bar" format="2">
  <advance width="1200"/>
  <outline>
    <contour>
      <point x="653" y="1445" type="line"/>
      <point x="545" y="1445" type="line"/>
      <point x="545" y="-201" type="line"/>
      <point x="653" y="-201" type="line"/>
    </contour>
  </outline>
</glyph>
<glyph name="_part.dot" format="2">
  <advance width="1200"/>
  <outline>
    <contour>
      <point x="600" y="220" type="curve" smooth="yes"/>
      <point x="533" y="220"/>
      <point x="481" y="167"/>
      <point x="481" y="102" type="curve" smooth="yes"/>
      <point x="481" y="34"/>
      <point x="533" y="-20"/>
      <point x="600" y="-20" type="curve" smooth="yes"/>
      <point x="671" y="-20"/>
      <point x="721" y="34"/>
      <point x="721" y="102" type="curve" smooth="yes"/>
      <point x="721" y="167"/>
      <point x="671" y="220"/>
    </contour>
  </outline>
</glyph>
<glyph name="_part.greater2" format="2">
  <advance width="1200"/>
  <outline>
    <contour>
      <point x="-13" y="1216" type="line"/>
      <point x="-13" y="1080" type="line"/>
      <point x="710" y="625" type="line"/>
      <point x="-13" y="173" type="line"/>
      <point x="-13" y="29" type="line"/>
      <point x="816" y="549" type="line"/>
      <point x="816" y="705" type="line"/>
    </contour>
  </outline>
</glyph>
<glyph name="_part.plus" format="2">
  <advance width="1200"/>
  <outline>
    <contour>
      <point x="660" y="1171" type="line"/>
      <point x="535" y="1171" type="line"/>
      <point x="535" y="676" type="line"/>
      <point x="50" y="676" type="line"/>
      <point x="50" y="565" type="line"/>
      <point x="535" y="565" type="line"/>
      <point x="535" y="74" type="line"/>
      <point x="660" y="74" type="line"/>
      <point x="660" y="565" type="line"/>
      <point x="1150" y="565" type="line"/>
      <point x="1150" y="676" type="line"/>
      <point x="660" y="676" type="line"/>
    </contour>
  </outline>
</glyph>
<glyph name="bar_greater.liga" format="2">
  <advance width="1200"/>
  <outline>
    <contour>
      <point x="-476" y="1425" type="line"/>
      <point x="-600" y="1425" type="line"/>
      <point x="-600" y="-181" type="line"/>
      <point x="-476" y="-181" type="line"/>
      <point x="689" y="549" type="line"/>
      <point x="689" y="705" type="line"/>
    </contour>
    <contour>
      <point x="-476" y="-36" type="line"/>
      <point x="-476" y="1288" type="line"/>
      <point x="583" y="625" type="line"/>
    </contour>
  </outline>
</glyph>
<glyph name="bar_hyphen.liga" format="2">
  <advance width="1200"/>
  <outline>
    <contour>
      <point x="-600" y="568" type="line"/>
      <point x="767" y="568" type="line"/>
      <point x="767" y="684" type="line"/>
      <point x="-600" y="684" type="line"/>
    </contour>
    <component base="_part.bar" xOffset="-1200"/>
  </outline>
</glyph>
<glyph name="braceleft_bar.liga" format="2">
  <advance width="1200"/>
  <outline>
    <contour>
      <point x="-273" y="1683" type="line"/>
      <point x="-455" y="1683"/>
      <point x="-611" y="1646"/>
      <point x="-612" y="1408" type="curve" smooth="yes"/>
      <point x="-613" y="963" type="line" smooth="yes"/>
      <point x="-612" y="831"/>
      <point x="-626" y="749"/>
      <point x="-925" y="749" type="curve"/>
      <point x="-925" y="651" type="line"/>
      <point x="-627" y="651"/>
      <point x="-613" y="566"/>
      <point x="-613" y="435" type="curve" smooth="yes"/>
      <point x="-613" y="12" type="line" smooth="yes"/>
      <point x="-613" y="-229"/>
      <point x="-455" y="-283"/>
      <point x="-273" y="-283" type="curve"/>
      <point x="331" y="-283" type="line"/>
      <point x="331" y="-183" type="line"/>
      <point x="-273" y="-183" type="line"/>
      <point x="-427" y="-183"/>
      <point x="-499" y="-145"/>
      <point x="-499" y="-14" type="curve" smooth="yes"/>
      <point x="-499" y="452" type="line" smooth="yes"/>
      <point x="-499" y="613"/>
      <point x="-531" y="677"/>
      <point x="-649" y="700" type="curve"/>
      <point x="-531" y="724"/>
      <point x="-497" y="798"/>
      <point x="-499" y="948" type="curve" smooth="yes"/>
      <point x="-501" y="1420" type="line" smooth="yes"/>
      <point x="-502" y="1549"/>
      <point x="-427" y="1584"/>
      <point x="-273" y="1584" type="curve"/>
      <point x="331" y="1584" type="line"/>
      <point x="331" y="1683" type="line"/>
    </contour>
    <contour>
      <point x="543" y="1683" type="line"/>
      <point x="435" y="1683" type="line"/>
      <point x="435" y="-283" type="line"/>
      <point x="543" y="-283" type="line"/>
    </contour>
  </outline>
</glyph>
<glyph name="braceleft_hyphen.rem" format="2">
  <advance width="1200"/>
  <outline>
    <contour>
      <point x="-790" y="642" type="line"/>
      <point x="741" y="642" type="line"/>
      <point x="741" y="758" type="line"/>
      <point x="-790" y="758" type="line"/>
    </contour>
    <contour>
      <point x="-306" y="1668" type="line"/>
      <point x="-488" y="1668"/>
      <point x="-715" y="1611"/>
      <point x="-691" y="1374" type="curve" smooth="yes"/>
      <point x="-647" y="963" type="line" smooth="yes"/>
      <point x="-634" y="831"/>
      <point x="-660" y="749"/>
      <point x="-958" y="749" type="curve"/>
      <point x="-958" y="651" type="line"/>
      <point x="-661" y="651"/>
      <point x="-634" y="566"/>
      <point x="-647" y="435" type="curve" smooth="yes"/>
      <point x="-691" y="27" type="line" smooth="yes"/>
      <point x="-716" y="-212"/>
      <point x="-488" y="-268"/>
      <point x="-306" y="-268" type="curve"/>
      <point x="-306" y="-162" type="line"/>
      <point x="-461" y="-162"/>
      <point x="-590" y="-124"/>
      <point x="-577" y="7" type="curve" smooth="yes"/>
      <point x="-532" y="452" type="line" smooth="yes"/>
      <point x="-517" y="614"/>
      <point x="-568" y="653"/>
      <point x="-564" y="700" type="curve"/>
      <point x="-567" y="732"/>
      <point x="-517" y="797"/>
      <point x="-532" y="948" type="curve" smooth="yes"/>
      <point x="-577" y="1393" type="line" smooth="yes"/>
      <point x="-590" y="1521"/>
      <point x="-460" y="1562"/>
      <point x="-306" y="1562" type="curve"/>
    </contour>
  </outline>
</glyph>
<glyph name="bracketleft_bar.liga" format="2">
  <advance width="1200"/>
  <outline>
    <contour>
      <point x="-615" y="-226" type="line"/>
      <point x="325" y="-226" type="line"/>
      <point x="325" y="-111" type="line"/>
      <point x="-498" y="-111" type="line"/>
      <point x="-498" y="1509" type="line"/>
      <point x="325" y="1509" type="line"/>
      <point x="325" y="1626" type="line"/>
      <point x="-615" y="1626" type="line"/>
    </contour>
    <contour>
      <point x="541" y="1626" type="line"/>
      <point x="433" y="1626" type="line"/>
      <point x="433" y="-226" type="line"/>
      <point x="541" y="-226" type="line"/>
    </contour>
  </outline>
</glyph>
<glyph name="bracketright_numbersign.liga" format="2">
  <advance width="1200"/>
  <outline>
    <contour>
      <point x="778" y="918" type="line"/>
      <point x="963" y="918" type="line"/>
      <point x="963" y="1026" type="line"/>
      <point x="791" y="1026" type="line"/>
      <point x="841" y="1374" type="line"/>
      <point x="732" y="1374" type="line"/>
      <point x="686" y="1026" type="line"/>
      <point x="362" y="1026" type="line"/>
      <point x="412" y="1374" type="line"/>
      <point x="304" y="1374" type="line"/>
      <point x="257" y="1026" type="line"/>
      <point x="-447" y="1026" type="line"/>
      <point x="-447" y="918" type="line"/>
      <point x="243" y="918" type="line"/>
      <point x="180" y="461" type="line"/>
      <point x="-447" y="461" type="line"/>
      <point x="-447" y="354" type="line"/>
      <point x="166" y="354" type="line"/>
      <point x="118" y="0" type="line"/>
      <point x="227" y="0" type="line"/>
      <point x="273" y="354" type="line"/>
      <point x="594" y="354" type="line"/>
      <point x="547" y="0" type="line"/>
      <point x="656" y="0" type="line"/>
      <point x="700" y="354" type="line"/>
      <point x="889" y="354" type="line"/>
      <point x="889" y="461" type="line"/>
      <point x="716" y="461" type="line"/>
    </contour>
    <contour>
      <point x="288" y="461" type="line"/>
      <point x="349" y="918" type="line"/>
      <point x="672" y="918" type="line"/>
      <point x="609" y="461" type="line"/>
    </contour>
    <component base="bracketright" xOffset="-1200"/>
  </outline>
</glyph>
<glyph name="caron.alt" format="2">
  <advance width="1200"/>
  <anchor x="501" y="1378" name="_topright"/>
  <outline>
    <contour>
      <point x="566" y="1387" type="line"/>
      <point x="525" y="1058" type="line"/>
      <point x="589" y="1049" type="line"/>
      <point x="682" y="1374" type="line"/>
    </contour>
  </outline>
</glyph>
<glyph name="descRound-cy" format="2">
  <advance width="1200"/>
  <anchor x="590" y="0" name="_bottom"/>
  <outline>
    <contour>
      <point x="542" y="47" type="curve"/>
      <point x="514" y="0" type="line"/>
      <point x="629" y="-64"/>
      <point x="695" y="-156"/>
      <point x="695" y="-252" type="curve" smooth="yes"/>
      <point x="695" y="-326"/>
      <point x="655" y="-371"/>
      <point x="580" y="-371" type="curve" smooth="yes"/>
      <point x="507" y="-371"/>
      <point x="469" y="-348"/>
      <point x="436" y="-331" type="curve"/>
      <point x="398" y="-417" type="line"/>
      <point x="434" y="-439"/>
      <point x="493" y="-467"/>
      <point x="587" y="-467" type="curve" smooth="yes"/>
      <point x="730" y="-467"/>
      <point x="821" y="-379"/>
      <point x="821" y="-252" type="curve" smooth="yes"/>
      <point x="821" y="-120"/>
      <point x="705" y="-9"/>
    </contour>
  </outline>
</glyph>
<glyph name="descStraight-cy.case" format="2">
  <advance width="1200"/>
  <anchor x="624" y="0" name="_bottom"/>
  <anchor x="425" y="0" name="_bottomleft"/>
  <anchor x="578" y="0" name="_bottomright"/>
  <outline>
    <contour>
      <point x="689" y="116" type="line"/>
      <point x="514" y="116" type="line"/>
      <point x="522" y="0" type="line"/>
      <point x="559" y="0" type="line"/>
      <point x="585" y="-278" type="line"/>
      <point x="689" y="-278" type="line"/>
    </contour>
  </outline>
</glyph>
<glyph name="dieresisacutecomb" format="2">
  <advance width="1200"/>
  <anchor x="602" y="1050" name="_top"/>
  <outline>
    <contour>
      <point x="408" y="1457" type="curve" smooth="yes"/>
      <point x="354" y="1457"/>
      <point x="313" y="1415"/>
      <point x="313" y="1363" type="curve" smooth="yes"/>
      <point x="313" y="1309"/>
      <point x="354" y="1269"/>
      <point x="408" y="1269" type="curve" smooth="yes"/>
      <point x="460" y="1269"/>
      <point x="501" y="1309"/>
      <point x="501" y="1363" type="curve" smooth="yes"/>
      <point x="501" y="1415"/>
      <point x="460" y="1457"/>
    </contour>
    <contour>
      <point x="795" y="1457" type="curve" smooth="yes"/>
      <point x="743" y="1457"/>
      <point x="702" y="1415"/>
      <point x="702" y="1363" type="curve" smooth="yes"/>
      <point x="702" y="1309"/>
      <point x="743" y="1269"/>
      <point x="795" y="1269" type="curve" smooth="yes"/>
      <point x="850" y="1269"/>
      <point x="890" y="1309"/>
      <point x="890" y="1363" type="curve" smooth="yes"/>
      <point x="890" y="1415"/>
      <point x="850" y="1457"/>
    </contour>
    <contour>
      <point x="777" y="1735" type="line"/>
      <point x="553" y="1468" type="line"/>
      <point x="610" y="1415" type="line"/>
      <point x="861" y="1653" type="line"/>
    </contour>
  </outline>
</glyph>
<glyph name="dieresisgravecomb" format="2">
  <advance width="1200"/>
  <anchor x="599" y="1050" name="_top"/>
  <outline>
    <contour>
      <point x="792" y="1457" type="curve" smooth="yes"/>
      <point x="739" y="1457"/>
      <point x="699" y="1415"/>
      <point x="699" y="1363" type="curve" smooth="yes"/>
      <point x="699" y="1309"/>
      <point x="739" y="1269"/>
      <point x="792" y="1269" type="curve" smooth="yes"/>
      <point x="846" y="1269"/>
      <point x="887" y="1309"/>
      <point x="887" y="1363" type="curve" smooth="yes"/>
      <point x="887" y="1415"/>
      <point x="846" y="1457"/>
    </contour>
    <contour>
      <point x="405" y="1457" type="curve" smooth="yes"/>
      <point x="350" y="1457"/>
      <point x="310" y="1415"/>
      <point x="310" y="1363" type="curve" smooth="yes"/>
      <point x="310" y="1309"/>
      <point x="350" y="1269"/>
      <point x="405" y="1269" type="curve" smooth="yes"/>
      <point x="457" y="1269"/>
      <point x="498" y="1309"/>
      <point x="498" y="1363" type="curve" smooth="yes"/>
      <point x="498" y="1415"/>
      <point x="457" y="1457"/>
    </contour>
    <contour>
      <point x="429" y="1735" type="line"/>
      <point x="345" y="1653" type="line"/>
      <point x="597" y="1415" type="line"/>
      <point x="653" y="1468" type="line"/>
    </contour>
  </outline>
</glyph>
<glyph name="equal_colon_equal.liga" format="2">
  <advance width="1200"/>
  <outline>
    <contour>
      <point x="-1106" y="863" type="line"/>
      <point x="-2194" y="863" type="line"/>
      <point x="-2194" y="748" type="line"/>
      <point x="-1106" y="748" type="line"/>
    </contour>
    <contour>
      <point x="-1106" y="496" type="line"/>
      <point x="-2194" y="496" type="line"/>
      <point x="-2194" y="380" type="line"/>
      <point x="-1106" y="380" type="line"/>
    </contour>
    <component base="colon_equal.liga" xOffset="19"/>
  </outline>
</glyph>
<glyph name="exclam_equal.liga" format="2">
  <advance width="1200"/>
  <outline>
    <contour>
      <point x="-321" y="-20" type="line"/>
      <point x="425" y="1236" type="line"/>
      <point x="325" y="1286" type="line"/>
      <point x="-425" y="31" type="line"/>
    </contour>
    <component base="equal_equal.liga"/>
  </outline>
</glyph>
<glyph name="five.dnom" format="2">
  <advance width="1200"/>
  <outline>
    <contour>
      <point x="881" y="220" type="curve" smooth="yes"/>
      <point x="881" y="357"/>
      <point x="785" y="429"/>
      <point x="647" y="429" type="curve" smooth="yes"/>
      <point x="603" y="429"/>
      <point x="541" y="416"/>
      <point x="501" y="396" type="curve"/>
      <point x="501" y="535" type="line"/>
      <point x="841" y="535" type="line"/>
      <point x="850" y="642" type="line"/>
      <point x="377" y="642" type="line"/>
      <point x="377" y="299" type="line"/>
      <point x="474" y="299" type="line"/>
      <point x="520" y="323"/>
      <point x="581" y="337"/>
      <point x="617" y="337" type="curve" smooth="yes"/>
      <point x="706" y="337"/>
      <point x="757" y="300"/>
      <point x="757" y="220" type="curve" smooth="yes"/>
      <point x="757" y="136"/>
      <point x="704" y="89"/>
      <point x="600" y="89" type="curve" smooth="yes"/>
      <point x="524" y="89"/>
      <point x="453" y="116"/>
      <point x="398" y="169" type="curve"/>
      <point x="319" y="100" type="line"/>
      <point x="400" y="15"/>
      <point x="501" y="-12"/>
      <point x="602" y="-12" type="curve" smooth="yes"/>
      <point x="757" y="-12"/>
      <point x="881" y="62"/>
    </contour>
  </outline>
</glyph>
<glyph name="four.dnom" format="2">
  <advance width="1200"/>
  <outline>
    <contour>
      <point x="781" y="112" type="line"/>
      <point x="899" y="112" type="line"/>
      <point x="899" y="222" type="line"/>
      <point x="781" y="222" type="line"/>
      <point x="781" y="397" type="line"/>
      <point x="660" y="397" type="line"/>
      <point x="653" y="222" type="line"/>
      <point x="443" y="222" type="line"/>
      <point x="682" y="616" type="line"/>
      <point x="579" y="663" type="line"/>
      <point x="299" y="198" type="line"/>
      <point x="299" y="112" type="line"/>
      <point x="655" y="112" type="line"/>
      <point x="655" y="0" type="line"/>
      <point x="781" y="0" type="line"/>
    </contour>
  </outline>
</glyph>
<glyph name="four.tosf" format="2">
  <advance width="1200"/>
  <outline>
    <contour>
      <point x="544" y="1141" type="line"/>
      <point x="134" y="183" type="line"/>
      <point x="134" y="91" type="line"/>
      <point x="1085" y="91" type="line"/>
      <point x="1085" y="191" type="line"/>
      <point x="271" y="191" type="line"/>
      <point x="649" y="1095" type="line"/>
    </contour>
    <contour>
      <point x="868" y="573" type="line"/>
      <point x="773" y="573" type="line"/>
      <point x="755" y="159" type="line"/>
      <point x="755" y="-210" type="line"/>
      <point x="868" y="-210" type="line"/>
    </contour>
  </outline>
</glyph>
<glyph name="hookHELPER.case" format="2">
  <advance width="1200"/>
  <outline>
    <contour>
      <point x="245" y="-414" type="curve" smooth="yes"/>
      <point x="397" y="-414"/>
      <point x="502" y="-326"/>
      <point x="502" y="-142" type="curve" smooth="yes"/>
      <point x="502" y="2" type="line"/>
      <point x="375" y="2" type="line"/>
      <point x="375" y="-147" type="line" smooth="yes"/>
      <point x="375" y="-251"/>
      <point x="328" y="-301"/>
      <point x="245" y="-301" type="curve" smooth="yes"/>
      <point x="173" y="-301"/>
      <point x="134" y="-282"/>
      <point x="83" y="-250" type="curve"/>
      <point x="34" y="-344" type="line"/>
      <point x="75" y="-376"/>
      <point x="147" y="-414"/>
    </contour>
  </outline>
</glyph>
<glyph name="hyphen_greater_greater.liga" format="2">
  <advance width="1200"/>
  <outline>
    <contour>
      <point x="-139" y="1216" type="line"/>
      <point x="-240" y="1132" type="line"/>
      <point x="89" y="770" type="line" smooth="yes"/>
      <point x="136" y="718"/>
      <point x="135" y="715"/>
      <point x="184" y="684" type="curve"/>
      <point x="-2141" y="684" type="line"/>
      <point x="-2141" y="568" type="line"/>
      <point x="185" y="568" type="line"/>
      <point x="147" y="544"/>
      <point x="117" y="511"/>
      <point x="89" y="482" type="curve" smooth="yes"/>
      <point x="-240" y="120" type="line"/>
      <point x="-139" y="36" type="line"/>
      <point x="386" y="626" type="line"/>
    </contour>
    <component base="_part.arrowhead"/>
  </outline>
</glyph>
<glyph name="hyphen_hyphen.liga" format="2">
  <advance width="1200"/>
  <outline>
    <contour>
      <point x="90" y="568" type="line"/>
      <point x="832" y="568" type="line"/>
      <point x="832" y="684" type="line"/>
      <point x="90" y="684" type="line"/>
    </contour>
    <contour>
      <point x="-832" y="568" type="line"/>
      <point x="-90" y="568" type="line"/>
      <point x="-90" y="684" type="line"/>
      <point x="-832" y="684" type="line"/>
    </contour>
  </outline>
</glyph>
<glyph name="less_equal_equal_greater.liga" format="2">
  <advance width="1200"/>
  <outline>
    <contour>
      <point x="807" y="863" type="line"/>
      <point x="-3207" y="863" type="line"/>
      <point x="-3207" y="748" type="line"/>
      <point x="807" y="748" type="line"/>
    </contour>
    <contour>
      <point x="807" y="496" type="line"/>
      <point x="-3207" y="496" type="line"/>
      <point x="-3207" y="380" type="line"/>
      <point x="807" y="380" type="line"/>
    </contour>
    <component base="_part.arrowhead2"/>
    <component base="_part.arrowhead2" xScale="-1" xOffset="-2400"/>
  </outline>
</glyph>
<glyph name="numbersign_numbersign.liga.rem" format="2">
  <advance width="1200"/>
  <outline>
    <contour>
      <point x="983" y="918" type="line"/>
      <point x="983" y="1026" type="line"/>
      <point x="711" y="1026" type="line"/>
      <point x="761" y="1374" type="line"/>
      <point x="652" y="1374" type="line"/>
      <point x="606" y="1026" type="line"/>
      <point x="97" y="1026" type="line"/>
      <point x="146" y="1374" type="line"/>
      <point x="39" y="1374" type="line"/>
      <point x="-8" y="1026" type="line"/>
      <point x="-518" y="1026" type="line"/>
      <point x="-468" y="1374" type="line"/>
      <point x="-576" y="1374" type="line"/>
      <point x="-623" y="1026" type="line"/>
      <point x="-910" y="1026" type="line"/>
      <point x="-910" y="918" type="line"/>
      <point x="-637" y="918" type="line"/>
      <point x="-700" y="461" type="line"/>
      <point x="-984" y="461" type="line"/>
      <point x="-984" y="354" type="line"/>
      <point x="-714" y="354" type="line"/>
      <point x="-762" y="0" type="line"/>
      <point x="-653" y="0" type="line"/>
      <point x="-607" y="354" type="line"/>
      <point x="-100" y="354" type="line"/>
      <point x="-146" y="0" type="line"/>
      <point x="-39" y="0" type="line"/>
      <point x="8" y="354" type="line"/>
      <point x="514" y="354" type="line"/>
      <point x="467" y="0" type="line"/>
      <point x="576" y="0" type="line"/>
      <point x="620" y="354" type="line"/>
      <point x="909" y="354" type="line"/>
      <point x="909" y="461" type="line"/>
      <point x="636" y="461" type="line"/>
      <point x="698" y="918" type="line"/>
    </contour>
    <contour>
      <point x="-85" y="461" type="line"/>
      <point x="-592" y="461" type="line"/>
      <point x="-531" y="918" type="line"/>
      <point x="-22" y="918" type="line"/>
    </contour>
    <contour>
      <point x="529" y="461" type="line"/>
      <point x="22" y="461" type="line"/>
      <point x="83" y="918" type="line"/>
      <point x="592" y="918" type="line"/>
    </contour>
  </outline>
</glyph>
<glyph name="numbersign_numbersign_numbersign.liga.rem" format="2">
  <advance width="1200"/>
  <outline>
    <contour>
      <point x="834" y="918" type="line"/>
      <point x="834" y="1026" type="line"/>
      <point x="562" y="1026" type="line"/>
      <point x="610" y="1374" type="line"/>
      <point x="503" y="1374" type="line"/>
      <point x="456" y="1026" type="line"/>
      <point x="-150" y="1026" type="line"/>
      <point x="-102" y="1374" type="line"/>
      <point x="-209" y="1374" type="line"/>
      <point x="-256" y="1026" type="line"/>
      <point x="-860" y="1026" type="line"/>
      <point x="-812" y="1374" type="line"/>
      <point x="-919" y="1374" type="line"/>
      <point x="-966" y="1026" type="line"/>
      <point x="-1570" y="1026" type="line"/>
      <point x="-1522" y="1374" type="line"/>
      <point x="-1629" y="1374" type="line"/>
      <point x="-1676" y="1026" type="line"/>
      <point x="-1961" y="1026" type="line"/>
      <point x="-1961" y="918" type="line"/>
      <point x="-1689" y="918" type="line"/>
      <point x="-1752" y="461" type="line"/>
      <point x="-2035" y="461" type="line"/>
      <point x="-2035" y="354" type="line"/>
      <point x="-1766" y="354" type="line"/>
      <point x="-1812" y="0" type="line"/>
      <point x="-1705" y="0" type="line"/>
      <point x="-1658" y="354" type="line"/>
      <point x="-1056" y="354" type="line"/>
      <point x="-1102" y="0" type="line"/>
      <point x="-995" y="0" type="line"/>
      <point x="-948" y="354" type="line"/>
      <point x="-346" y="354" type="line"/>
      <point x="-392" y="0" type="line"/>
      <point x="-285" y="0" type="line"/>
      <point x="-238" y="354" type="line"/>
      <point x="366" y="354" type="line"/>
      <point x="320" y="0" type="line"/>
      <point x="427" y="0" type="line"/>
      <point x="472" y="354" type="line"/>
      <point x="760" y="354" type="line"/>
      <point x="760" y="461" type="line"/>
      <point x="488" y="461" type="line"/>
      <point x="548" y="918" type="line"/>
    </contour>
    <contour>
      <point x="-1042" y="461" type="line"/>
      <point x="-1644" y="461" type="line"/>
      <point x="-1584" y="918" type="line"/>
      <point x="-979" y="918" type="line"/>
    </contour>
    <contour>
      <point x="-332" y="461" type="line"/>
      <point x="-934" y="461" type="line"/>
      <point x="-874" y="918" type="line"/>
      <point x="-269" y="918" type="line"/>
    </contour>
    <contour>
      <point x="380" y="461" type="line"/>
      <point x="-224" y="461" type="line"/>
      <point x="-164" y="918" type="line"/>
      <point x="443" y="918" type="line"/>
    </contour>
  </outline>
</glyph>
<glyph name="ogonek.thin" format="2">
  <advance width="1200"/>
  <anchor x="827" y="0" name="_ogonek"/>
  <outline>
    <contour>
      <point x="817" y="15" type="line"/>
      <point x="542" y="-17"/>
      <point x="422" y="-133"/>
      <point x="422" y="-263" type="curve" smooth="yes"/>
      <point x="422" y="-359"/>
      <point x="501" y="-445"/>
      <point x="648" y="-445" type="curve" smooth="yes"/>
      <point x="702" y="-445"/>
      <point x="736" y="-439"/>
      <point x="777" y="-431" type="curve"/>
      <point x="793" y="-313" type="line"/>
      <point x="738" y="-324"/>
      <point x="706" y="-327"/>
      <point x="664" y="-327" type="curve" smooth="yes"/>
      <point x="577" y="-327"/>
      <point x="554" y="-289"/>
      <point x="554" y="-232" type="curve" smooth="yes"/>
      <point x="554" y="-164"/>
      <point x="595" y="-99"/>
      <point x="807" y="0" type="curve"/>
    </contour>
  </outline>
</glyph>
<glyph name="one.dnom" format="2">
  <advance width="1200"/>
  <outline>
    <contour>
      <point x="674" y="0" type="line"/>
      <point x="789" y="0" type="line"/>
      <point x="789" y="642" type="line"/>
      <point x="699" y="642" type="line"/>
      <point x="412" y="470" type="line"/>
      <point x="472" y="383" type="line"/>
      <point x="674" y="495" type="line"/>
    </contour>
  </outline>
</glyph>
<glyph name="question_colon.liga" format="2">
  <advance width="1200"/>
  <outline>
    <contour>
      <point x="-349" y="1393" type="curve" smooth="yes"/>
      <point x="-496" y="1393"/>
      <point x="-634" y="1337"/>
      <point x="-751" y="1200" type="curve"/>
      <point x="-655" y="1132" type="line"/>
      <point x="-569" y="1240"/>
      <point x="-458" y="1285"/>
      <point x="-362" y="1285" type="curve" smooth="yes"/>
      <point x="-215" y="1285"/>
      <point x="-103" y="1214"/>
      <point x="-103" y="1087" type="curve" smooth="yes"/>
      <point x="-103" y="842"/>
      <point x="-465" y="843"/>
      <point x="-465" y="525" type="curve" smooth="yes"/>
      <point x="-465" y="437" type="line"/>
      <point x="-331" y="437" type="line"/>
      <point x="-331" y="515" type="line" smooth="yes"/>
      <point x="-331" y="824"/>
      <point x="26" y="774"/>
      <point x="26" y="1092" type="curve" smooth="yes"/>
      <point x="26" y="1244"/>
      <point x="-121" y="1393"/>
    </contour>
    <contour>
      <point x="-538" y="129" type="curve" smooth="yes"/>
      <point x="-538" y="45"/>
      <point x="-476" y="-20"/>
      <point x="-393" y="-20" type="curve" smooth="yes"/>
      <point x="-306" y="-20"/>
      <point x="-243" y="45"/>
      <point x="-243" y="129" type="curve" smooth="yes"/>
      <point x="-243" y="208"/>
      <point x="-306" y="276"/>
      <point x="-393" y="276" type="curve" smooth="yes"/>
      <point x="-476" y="276"/>
      <point x="-538" y="208"/>
    </contour>
    <component base="colon" xOffset="-200"/>
  </outline>
</glyph>
<glyph name="questiondown.case" format="2">
  <advance width="1200"/>
  <outline>
    <contour>
      <point x="651" y="1393" type="curve" smooth="yes"/>
      <point x="584" y="1393"/>
      <point x="533" y="1341"/>
      <point x="533" y="1273" type="curve" smooth="yes"/>
      <point x="533" y="1206"/>
      <point x="584" y="1153"/>
      <point x="651" y="1153" type="curve" smooth="yes"/>
      <point x="720" y="1153"/>
      <point x="773" y="1206"/>
      <point x="773" y="1273" type="curve" smooth="yes"/>
      <point x="773" y="1341"/>
      <point x="720" y="1393"/>
    </contour>
    <contour>
      <point x="727" y="932" type="line"/>
      <point x="593" y="932" type="line"/>
      <point x="593" y="854" type="line" smooth="yes"/>
      <point x="593" y="564"/>
      <point x="236" y="595"/>
      <point x="236" y="277" type="curve" smooth="yes"/>
      <point x="236" y="125"/>
      <point x="383" y="-24"/>
      <point x="611" y="-24" type="curve" smooth="yes"/>
      <point x="758" y="-24"/>
      <point x="896" y="32"/>
      <point x="1013" y="169" type="curve"/>
      <point x="917" y="237" type="line"/>
      <point x="831" y="129"/>
      <point x="720" y="84"/>
      <point x="624" y="84" type="curve" smooth="yes"/>
      <point x="477" y="84"/>
      <point x="365" y="155"/>
      <point x="365" y="282" type="curve" smooth="yes"/>
      <point x="365" y="516"/>
      <point x="727" y="526"/>
      <point x="727" y="844" type="curve" smooth="yes"/>
    </contour>
  </outline>
</glyph>
<glyph name="six.dnom" format="2">
  <advance width="1200"/>
  <outline>
    <contour>
      <point x="787" y="509" type="curve"/>
      <point x="851" y="594" type="line"/>
      <point x="781" y="637"/>
      <point x="695" y="654"/>
      <point x="621" y="654" type="curve" smooth="yes"/>
      <point x="402" y="654"/>
      <point x="302" y="501"/>
      <point x="302" y="333" type="curve" smooth="yes"/>
      <point x="302" y="140"/>
      <point x="409" y="-12"/>
      <point x="617" y="-12" type="curve" smooth="yes"/>
      <point x="765" y="-12"/>
      <point x="898" y="75"/>
      <point x="898" y="220" type="curve" smooth="yes"/>
      <point x="898" y="363"/>
      <point x="778" y="422"/>
      <point x="657" y="422" type="curve" smooth="yes"/>
      <point x="549" y="422"/>
      <point x="481" y="386"/>
      <point x="417" y="331" type="curve"/>
      <point x="421" y="477"/>
      <point x="485" y="547"/>
      <point x="619" y="547" type="curve" smooth="yes"/>
      <point x="685" y="547"/>
      <point x="738" y="535"/>
    </contour>
    <contour>
      <point x="640" y="338" type="curve" smooth="yes"/>
      <point x="722" y="338"/>
      <point x="777" y="300"/>
      <point x="777" y="219" type="curve" smooth="yes"/>
      <point x="777" y="150"/>
      <point x="720" y="96"/>
      <point x="616" y="96" type="curve" smooth="yes"/>
      <point x="491" y="96"/>
      <point x="450" y="175"/>
      <point x="422" y="244" type="curve"/>
      <point x="497" y="309"/>
      <point x="563" y="338"/>
    </contour>
  </outline>
</glyph>
<glyph name="underscore_underscore.liga" format="2">
  <advance width="1200"/>
  <outline>
    <contour>
      <point x="-1100" y="-360" type="line"/>
      <point x="1100" y="-360" type="line"/>
      <point x="1100" y="-243" type="line"/>
      <point x="-1100" y="-243" type="line"/>
    </contour>
  </outline>
</glyph>
<glyph name="zero.dnom" format="2">
  <advance width="1200"/>
  <outline>
    <contour>
      <point x="777" y="323" type="curve" smooth="yes"/>
      <point x="777" y="164"/>
      <point x="709" y="93"/>
      <point x="599" y="93" type="curve" smooth="yes"/>
      <point x="486" y="93"/>
      <point x="420" y="178"/>
      <point x="420" y="323" type="curve" smooth="yes"/>
      <point x="420" y="475"/>
      <point x="491" y="546"/>
      <point x="599" y="546" type="curve" smooth="yes"/>
      <point x="709" y="546"/>
      <point x="777" y="482"/>
    </contour>
    <contour>
      <point x="904" y="323" type="curve" smooth="yes"/>
      <point x="904" y="496"/>
      <point x="807" y="654"/>
      <point x="599" y="654" type="curve" smooth="yes"/>
      <point x="393" y="654"/>
      <point x="293" y="498"/>
      <point x="293" y="323" type="curve" smooth="yes"/>
      <point x="293" y="153"/>
      <point x="393" y="-12"/>
      <point x="599" y="-12" type="curve" smooth="yes"/>
      <point x="807" y="-12"/>
      <point x="904" y="153"/>
    </contour>
  </outline>
</glyph>
<glyph name="zero.tosf" format="2">
  <advance width="1200"/>
  <outline>
    <contour>
      <point x="600" y="1141" type="curve" smooth="yes"/>
      <point x="324" y="1141"/>
      <point x="113" y="940"/>
      <point x="113" y="561" type="curve" smooth="yes"/>
      <point x="113" y="198"/>
      <point x="318" y="-20"/>
      <point x="600" y="-20" type="curve" smooth="yes"/>
      <point x="878" y="-20"/>
      <point x="1087" y="184"/>
      <point x="1087" y="561" type="curve" smooth="yes"/>
      <point x="1087" y="925"/>
      <point x="881" y="1141"/>
    </contour>
    <contour>
      <point x="600" y="1030" type="curve" smooth="yes"/>
      <point x="797" y="1030"/>
      <point x="948" y="925"/>
      <point x="948" y="561" type="curve" smooth="yes"/>
      <point x="948" y="218"/>
      <point x="777" y="91"/>
      <point x="600" y="91" type="curve" smooth="yes"/>
      <point x="403" y="91"/>
      <point x="252" y="200"/>
      <point x="252" y="561" type="curve" smooth="yes"/>
      <point x="252" y="905"/>
      <point x="423" y="1030"/>
    </contour>
    <contour>
      <point x="779" y="1077" type="line"/>
      <point x="333" y="159" type="line"/>
      <point x="415" y="97" type="line"/>
      <point x="869" y="1033" type="line"/>
    </contour>
  </outline>
</glyph>
